<svg width="1920" height="1080" viewBox="0 0 1920 1080" fill="none" xmlns="http://www.w3.org/2000/svg">
<g clip-path="url(#clip0)">
<rect width="1920" height="1080" fill="#000839"/>
<rect x="1368" width="776" height="1080" rx="87" fill="#FFA41B"/>
<circle cx="1230.15" cy="371.15" r="299.947" transform="rotate(45 1230.15 371.15)" stroke="#00A8CC" stroke-width="65"/>
<g filter="url(#filter0_d)">
<path d="M1449.81 425.71C1384.14 354.77 1292.97 312.824 1196.37 309.1C1099.77 305.375 1005.65 340.178 934.71 405.851C863.77 471.524 821.824 562.688 818.1 659.288C814.375 755.888 849.178 850.011 914.851 920.951L971.458 868.546C919.684 812.619 892.247 738.416 895.183 662.26C898.119 586.103 931.188 514.233 987.115 462.458C1043.04 410.684 1117.25 383.247 1193.4 386.183C1269.56 389.119 1341.43 422.188 1393.2 478.115L1449.81 425.71Z" fill="#FFA41B"/>
</g>
<g filter="url(#filter1_d)">
<circle cx="1230" cy="371" r="212.5" stroke="#005082" stroke-width="15"/>
</g>
<line x1="199.268" y1="1164.56" x2="386.651" y2="840" stroke="#FFA41B" stroke-width="4"/>
<line x1="229.087" y1="1181.91" x2="406.087" y2="875.335" stroke="#FFA41B" stroke-width="4"/>
<line x1="259.398" y1="1199.41" x2="425.398" y2="911.888" stroke="#FFA41B" stroke-width="4"/>
<line x1="289.709" y1="1216.91" x2="445.209" y2="947.575" stroke="#FFA41B" stroke-width="4"/>
<line x1="320.02" y1="1234.41" x2="459.02" y2="993.653" stroke="#FFA41B" stroke-width="4"/>
<circle cx="262.5" cy="824.5" r="16.5" fill="#FFA41B"/>
<circle cx="362" cy="753" r="55" fill="#FFA41B"/>
<circle cx="331.5" cy="267.5" r="204" stroke="#00A8CC" stroke-width="9"/>
<circle cx="331.5" cy="267.5" r="183.5" fill="#00A8CC"/>
<circle cx="331.5" cy="267.5" r="100.5" fill="#000839"/>
</g>
<circle cx="1471" cy="76" r="25" fill="#000839"/>
<circle cx="1817" cy="323" r="14" fill="#005082"/>
<circle cx="1678.5" cy="904.5" r="44.5" fill="#00A8CC"/>
<circle cx="941.5" cy="615.5" r="13.5" fill="#005082"/>
<circle cx="993.5" cy="695.5" r="33.5" fill="#00A8CC"/>
<g filter="url(#filter2_d)">
<circle cx="1021" cy="91" r="61" fill="#FFA41B"/>
</g>
<g filter="url(#filter3_d)">
<rect x="1084" y="236" width="608" height="608" rx="129" fill="white"/>
</g>
<g filter="url(#filter4_di)">
<path d="M231 334C231 317.984 243.984 305 260 305H707C723.016 305 736 317.984 736 334V746C736 762.016 723.016 775 707 775H260C243.984 775 231 762.016 231 746V334Z" fill="#00A8CC" fill-opacity="0.31"/>
</g>
<defs>
<filter id="filter0_d" x="782.518" y="266.999" width="681.812" height="719.462" filterUnits="userSpaceOnUse" color-interpolation-filters="sRGB">
<feFlood flood-opacity="0" result="BackgroundImageFix"/>
<feColorMatrix in="SourceAlpha" type="matrix" values="0 0 0 0 0 0 0 0 0 0 0 0 0 0 0 0 0 0 127 0"/>
<feOffset dy="4"/>
<feGaussianBlur stdDeviation="2"/>
<feColorMatrix type="matrix" values="0 0 0 0 0 0 0 0 0 0 0 0 0 0 0 0 0 0 0.25 0"/>
<feBlend mode="normal" in2="BackgroundImageFix" result="effect1_dropShadow"/>
<feBlend mode="normal" in="SourceGraphic" in2="effect1_dropShadow" result="shape"/>
</filter>
<filter id="filter1_d" x="1006" y="151" width="448" height="448" filterUnits="userSpaceOnUse" color-interpolation-filters="sRGB">
<feFlood flood-opacity="0" result="BackgroundImageFix"/>
<feColorMatrix in="SourceAlpha" type="matrix" values="0 0 0 0 0 0 0 0 0 0 0 0 0 0 0 0 0 0 127 0"/>
<feOffset dy="4"/>
<feGaussianBlur stdDeviation="2"/>
<feColorMatrix type="matrix" values="0 0 0 0 0 0 0 0 0 0 0 0 0 0 0 0 0 0 0.25 0"/>
<feBlend mode="normal" in2="BackgroundImageFix" result="effect1_dropShadow"/>
<feBlend mode="normal" in="SourceGraphic" in2="effect1_dropShadow" result="shape"/>
</filter>
<filter id="filter2_d" x="956" y="30" width="130" height="130" filterUnits="userSpaceOnUse" color-interpolation-filters="sRGB">
<feFlood flood-opacity="0" result="BackgroundImageFix"/>
<feColorMatrix in="SourceAlpha" type="matrix" values="0 0 0 0 0 0 0 0 0 0 0 0 0 0 0 0 0 0 127 0"/>
<feOffset dy="4"/>
<feGaussianBlur stdDeviation="2"/>
<feColorMatrix type="matrix" values="0 0 0 0 0 0 0 0 0 0 0 0 0 0 0 0 0 0 0.25 0"/>
<feBlend mode="normal" in2="BackgroundImageFix" result="effect1_dropShadow"/>
<feBlend mode="normal" in="SourceGraphic" in2="effect1_dropShadow" result="shape"/>
</filter>
<filter id="filter3_d" x="1080" y="236" width="616" height="616" filterUnits="userSpaceOnUse" color-interpolation-filters="sRGB">
<feFlood flood-opacity="0" result="BackgroundImageFix"/>
<feColorMatrix in="SourceAlpha" type="matrix" values="0 0 0 0 0 0 0 0 0 0 0 0 0 0 0 0 0 0 127 0"/>
<feOffset dy="4"/>
<feGaussianBlur stdDeviation="2"/>
<feColorMatrix type="matrix" values="0 0 0 0 0 0 0 0 0 0 0 0 0 0 0 0 0 0 0.25 0"/>
<feBlend mode="normal" in2="BackgroundImageFix" result="effect1_dropShadow"/>
<feBlend mode="normal" in="SourceGraphic" in2="effect1_dropShadow" result="shape"/>
</filter>
<filter id="filter4_di" x="227" y="305" width="513" height="478" filterUnits="userSpaceOnUse" color-interpolation-filters="sRGB">
<feFlood flood-opacity="0" result="BackgroundImageFix"/>
<feColorMatrix in="SourceAlpha" type="matrix" values="0 0 0 0 0 0 0 0 0 0 0 0 0 0 0 0 0 0 127 0"/>
<feOffset dy="4"/>
<feGaussianBlur stdDeviation="2"/>
<feColorMatrix type="matrix" values="0 0 0 0 0 0 0 0 0 0 0 0 0 0 0 0 0 0 0.25 0"/>
<feBlend mode="normal" in2="BackgroundImageFix" result="effect1_dropShadow"/>
<feBlend mode="normal" in="SourceGraphic" in2="effect1_dropShadow" result="shape"/>
<feColorMatrix in="SourceAlpha" type="matrix" values="0 0 0 0 0 0 0 0 0 0 0 0 0 0 0 0 0 0 127 0" result="hardAlpha"/>
<feOffset dy="4"/>
<feGaussianBlur stdDeviation="2"/>
<feComposite in2="hardAlpha" operator="arithmetic" k2="-1" k3="1"/>
<feColorMatrix type="matrix" values="0 0 0 0 0 0 0 0 0 0 0 0 0 0 0 0 0 0 0.25 0"/>
<feBlend mode="normal" in2="shape" result="effect2_innerShadow"/>
</filter>
<clipPath id="clip0">
<rect width="1920" height="1080" fill="white"/>
</clipPath>
</defs>
</svg>
