<?xml version="1.0" standalone="no"?>
<svg xmlns="http://www.w3.org/2000/svg" viewBox="0 0 569 501" version="1.1"><rect x="0" y="0" width="570" height="502" fill="white"/> <path d="M 0.0 0.0 Q 0.0  0.0 31.52 184.04 Q 31.52  184.04 112.8 306.73 Q 112.8  306.73 223.95 368.08 Q 223.95  368.08 345.05 368.08 Q 345.05  368.08 456.2 306.73 Q 456.2  306.73 537.48 184.04 Q 537.48  184.04 569.0 0.0 " fill="rgb(252,254,254)"/> <path d="M 199.0 131.0 Q 199.0  131.0 220.58 131.33 Q 220.58  131.33 227.59 132.21 Q 227.59  132.21 232.66 133.42 Q 232.66  133.42 237.39 134.6 Q 237.39  134.6 240.83 135.5 Q 240.83  135.5 244.65 136.81 Q 244.65  136.81 250.68 139.18 Q 250.68  139.18 256.96 141.72 Q 256.96  141.72 260.92 143.26 Q 260.92  143.26 263.64 144.17 Q 263.64  144.17 267.26 145.27 Q 267.26  145.27 271.39 146.46 Q 271.39  146.46 274.78 147.32 Q 274.78  147.32 277.64 147.88 Q 277.64  147.88 280.74 148.37 Q 280.74  148.37 284.6 148.76 Q 284.6  148.76 289.46 148.95 Q 289.46  148.95 294.57 148.9 Q 294.57  148.9 298.75 148.61 Q 298.75  148.61 301.89 148.17 Q 301.89  148.17 304.55 147.68 Q 304.55  147.68 306.89 147.19 Q 306.89  147.19 308.81 146.69 Q 308.81  146.69 310.39 146.12 Q 310.39  146.12 311.87 145.37 Q 311.87  145.37 313.34 144.59 Q 313.34  144.59 314.84 144.11 Q 314.84  144.11 316.67 143.71 Q 316.67  143.71 319.38 142.71 Q 319.38  142.71 322.85 141.14 Q 322.85  141.14 326.29 139.67 Q 326.29  139.67 329.57 138.48 Q 329.57  138.48 333.24 137.25 Q 333.24  137.25 337.62 135.85 Q 337.62  135.85 342.71 134.39 Q 342.71  134.39 348.1 133.02 Q 348.1  133.02 352.89 131.99 Q 352.89  131.99 357.63 131.38 Q 357.63  131.38 364.72 131.1 Q 364.72  131.1 374.1 131.06 Q 374.1  131.06 381.86 131.26 Q 381.86  131.26 386.05 131.65 Q 386.05  131.65 388.45 132.14 Q 388.45  132.14 390.51 132.63 Q 390.51  132.63 392.49 133.12 Q 392.49  133.12 394.64 133.69 Q 394.64  133.69 397.54 134.55 Q 397.54  134.55 401.35 135.81 Q 401.35  135.81 405.36 137.26 Q 405.36  137.26 409.09 138.8 Q 409.09  138.8 412.9 140.62 Q 412.9  140.62 416.97 142.78 Q 416.97  142.78 420.7 144.88 Q 420.7  144.88 423.64 146.61 Q 423.64  146.61 426.0 148.11 Q 426.0  148.11 428.1 149.59 Q 428.1  149.59 430.08 151.06 Q 430.08  151.06 432.09 152.58 Q 432.09  152.58 434.35 154.35 Q 434.35  154.35 437.09 156.62 Q 437.09  156.62 440.56 159.73 Q 440.56  159.73 444.77 163.81 Q 444.77  163.81 448.79 167.94 Q 448.79  167.94 451.61 171.14 Q 451.61  171.14 453.09 173.48 Q 453.09  173.48 453.41 175.23 Q 453.41  175.23 453.06 176.4 Q 453.06  176.4 452.52 176.96 Q 452.52  176.96 451.56 177.52 Q 451.56  177.52 449.79 178.78 Q 449.79  178.78 447.24 180.61 Q 447.24  180.61 444.09 182.69 Q 444.09  182.69 439.88 185.82 Q 439.88  185.82 434.08 191.07 Q 434.08  191.07 427.73 197.71 Q 427.73  197.71 422.45 204.16 Q 422.45  204.16 418.6 209.81 Q 418.6  209.81 415.81 214.59 Q 415.81  214.59 413.66 219.07 Q 413.66  219.07 411.71 224.08 Q 411.71  224.08 410.0 229.09 Q 410.0  229.09 408.85 232.82 Q 408.85  232.82 408.2 235.45 Q 408.2  235.45 407.71 238.31 Q 407.71  238.31 407.3 243.03 Q 407.3  243.03 407.07 251.31 Q 407.07  251.31 407.08 261.49 Q 407.08  261.49 407.33 269.19 Q 407.33  269.19 407.75 273.31 Q 407.75  273.31 408.25 275.84 Q 408.25  275.84 408.93 278.46 Q 408.93  278.46 410.14 282.33 Q 410.14  282.33 412.0 287.64 Q 412.0  287.64 414.41 293.49 Q 414.41  293.49 417.04 299.0 Q 417.04  299.0 419.31 303.34 Q 419.31  303.34 421.03 306.33 Q 421.03  306.33 422.53 308.61 Q 422.53  308.61 424.05 310.71 Q 424.05  310.71 425.74 312.89 Q 425.74  312.89 427.88 315.48 Q 427.88  315.48 431.04 318.94 Q 431.04  318.94 435.13 323.08 Q 435.13  323.08 438.83 326.59 Q 438.83  326.59 441.6 328.9 Q 441.6  328.9 444.56 331.0 Q 444.56  331.0 448.41 333.56 Q 448.41  333.56 452.6 336.11 Q 452.6  336.11 456.45 338.17 Q 456.45  338.17 459.35 339.47 Q 459.35  339.47 461.05 339.98 Q 461.05  339.98 462.11 340.2 Q 462.11  340.2 463.1 340.56 Q 463.1  340.56 464.08 341.04 Q 464.08  341.04 465.04 341.56 Q 465.04  341.56 465.87 342.2 Q 465.87  342.2 466.43 343.07 Q 466.43  343.07 466.5 344.18 Q 466.5  344.18 465.98 345.5 Q 465.98  345.5 465.34 346.81 Q 465.34  346.81 464.9 348.22 Q 464.9  348.22 463.77 351.25 Q 463.77  351.25 461.09 357.22 Q 461.09  357.22 457.5 364.67 Q 457.5  364.67 453.95 371.59 Q 453.95  371.59 450.98 377.11 Q 450.98  377.11 448.8 380.95 Q 448.8  380.95 446.97 384.0 Q 446.97  384.0 444.87 387.39 Q 444.87  387.39 442.59 391.0 Q 442.59  391.0 440.43 394.34 Q 440.43  394.34 438.21 397.68 Q 438.21  397.68 435.61 401.57 Q 435.61  401.57 432.44 406.18 Q 432.44  406.18 428.64 411.44 Q 428.64  411.44 424.82 416.53 Q 424.82  416.53 421.73 420.51 Q 421.73  420.51 418.08 424.66 Q 418.08  424.66 411.65 431.28 Q 411.65  431.28 403.29 439.34 Q 403.29  439.34 395.73 445.82 Q 395.73  445.82 390.22 449.81 Q 390.22  449.81 386.99 451.89 Q 386.99  451.89 385.44 452.78 Q 385.44  452.78 384.44 453.28 Q 384.44  453.28 383.38 453.77 Q 383.38  453.77 382.15 454.26 Q 382.15  454.26 380.73 454.75 Q 380.73  454.75 379.26 455.25 Q 379.26  455.25 377.72 455.74 Q 377.72  455.74 376.01 456.23 Q 376.01  456.23 374.05 456.72 Q 374.05  456.72 371.85 457.21 Q 371.85  457.21 369.13 457.65 Q 369.13  457.65 365.34 457.91 Q 365.34  457.91 360.74 457.94 Q 360.74  457.94 356.66 457.73 Q 356.66  457.73 353.74 457.32 Q 353.74  457.32 351.45 456.84 Q 351.45  456.84 349.39 456.35 Q 349.39  456.35 347.42 455.86 Q 347.42  455.86 345.5 455.36 Q 345.5  455.36 343.73 454.87 Q 343.73  454.87 341.99 454.3 Q 341.99  454.3 339.75 453.43 Q 339.75  453.43 336.67 452.1 Q 336.67  452.1 332.9 450.28 Q 332.9  450.28 328.6 448.08 Q 328.6  448.08 323.68 445.82 Q 323.68  445.82 318.35 443.83 Q 318.35  443.83 313.66 442.35 Q 313.66  442.35 310.29 441.49 Q 310.29  441.49 307.4 440.96 Q 307.4  440.96 303.94 440.49 Q 303.94  440.49 298.83 440.15 Q 298.83  440.15 291.69 440.04 Q 291.69  440.04 284.54 440.17 Q 284.54  440.17 279.26 440.52 Q 279.26  440.52 275.54 440.99 Q 275.54  440.99 272.63 441.5 Q 272.63  441.5 269.96 442.13 Q 269.96  442.13 267.17 442.96 Q 267.17  442.96 264.24 443.92 Q 264.24  443.92 261.34 444.89 Q 261.34  444.89 258.76 445.75 Q 258.76  445.75 256.8 446.42 Q 256.8  446.42 255.35 447.06 Q 255.35  447.06 254.16 447.86 Q 254.16  447.86 252.81 448.69 Q 252.81  448.69 250.92 449.38 Q 250.92  449.38 248.89 450.01 Q 248.89  450.01 247.32 450.81 Q 247.32  450.81 245.91 451.75 Q 245.91  451.75 244.05 452.73 Q 244.05  452.73 241.92 453.61 Q 241.92  453.61 240.04 454.3 Q 240.04  454.3 238.48 454.84 Q 238.48  454.84 236.99 455.33 Q 236.99  455.33 235.43 455.82 Q 235.43  455.82 233.68 456.32 Q 233.68  456.32 231.77 456.81 Q 231.77  456.81 229.75 457.3 Q 229.75  457.3 226.84 457.71 Q 226.84  457.71 221.77 457.93 Q 221.77  457.93 215.28 457.84 Q 215.28  457.84 209.74 457.34 Q 209.74  457.34 206.01 456.55 Q 206.01  456.55 203.53 455.82 Q 203.53  455.82 201.79 455.26 Q 201.79  455.26 200.3 454.76 Q 200.3  454.76 198.64 454.15 Q 198.64  454.15 196.46 453.19 Q 196.46  453.19 193.57 451.69 Q 193.57  451.69 189.96 449.55 Q 189.96  449.55 185.99 446.95 Q 185.99  446.95 182.45 444.45 Q 182.45  444.45 179.2 441.81 Q 179.2  441.81 174.82 437.73 Q 174.82  437.73 169.17 432.12 Q 169.17  432.12 164.19 426.94 Q 164.19  426.94 160.96 423.31 Q 160.96  423.31 158.82 420.69 Q 158.82  420.69 157.07 418.41 Q 157.07  418.41 155.2 415.85 Q 155.2  415.85 152.95 412.73 Q 152.95  412.73 150.51 409.32 Q 150.51  409.32 147.95 405.7 Q 147.95  405.7 144.97 401.38 Q 144.97  401.38 141.48 396.16 Q 141.48  396.16 138.09 390.83 Q 138.09  390.83 135.29 386.07 Q 135.29  386.07 132.96 381.77 Q 132.96  381.77 130.78 377.55 Q 130.78  377.55 128.33 372.66 Q 128.33  372.66 125.39 366.75 Q 125.39  366.75 122.6 361.03 Q 122.6  361.03 120.59 356.65 Q 120.59  356.65 119.18 353.35 Q 119.18  353.35 118.05 350.6 Q 118.05  350.6 117.04 348.1 Q 117.04  348.1 116.02 345.52 Q 116.02  345.52 114.78 342.14 Q 114.78  342.14 113.14 337.39 Q 113.14  337.39 111.36 331.93 Q 111.36  331.93 109.72 326.65 Q 109.72  326.65 108.21 321.44 Q 108.21  321.44 106.75 315.9 Q 106.75  315.9 105.39 310.18 Q 105.39  310.18 104.23 304.57 Q 104.23  304.57 103.21 298.91 Q 103.21  298.91 102.24 292.93 Q 102.24  292.93 101.36 287.03 Q 101.36  287.03 100.68 281.67 Q 100.68  281.67 100.25 275.22 Q 100.25  275.22 100.05 265.38 Q 100.05  265.38 100.1 254.14 Q 100.1  254.14 100.39 245.55 Q 100.39  245.55 100.92 240.3 Q 100.92  240.3 101.68 237.02 Q 101.68  237.02 102.45 234.49 Q 102.45  234.49 102.9 231.69 Q 102.9  231.69 103.25 228.02 Q 103.25  228.02 104.04 223.26 Q 104.04  223.26 105.42 217.66 Q 105.42  217.66 107.14 211.78 Q 107.14  211.78 108.97 206.24 Q 108.97  206.24 110.68 201.59 Q 110.68  201.59 112.09 198.15 Q 112.09  198.15 113.09 195.9 Q 113.09  195.9 113.72 194.56 Q 113.72  194.56 114.22 193.55 Q 114.22  193.55 114.89 192.28 Q 114.89  192.28 116.06 190.17 Q 116.06  190.17 117.73 187.29 Q 117.73  187.29 119.47 184.53 Q 119.47  184.53 121.02 182.31 Q 121.02  182.31 122.51 180.33 Q 122.51  180.33 124.08 178.26 Q 124.08  178.26 125.97 175.88 Q 125.97  175.88 128.63 172.77 Q 128.63  172.77 132.85 168.25 Q 132.85  168.25 138.52 162.53 Q 138.52  162.53 143.79 157.44 Q 143.79  157.44 147.73 153.97 Q 147.73  153.97 151.49 151.05 Q 151.49  151.05 155.76 148.0 Q 155.76  148.0 159.57 145.47 Q 159.57  145.47 162.35 143.85 Q 162.35  143.85 165.08 142.46 Q 165.08  142.46 168.5 140.76 Q 168.5  140.76 172.21 138.99 Q 172.21  138.99 175.67 137.44 Q 175.67  137.44 178.5 136.27 Q 178.5  136.27 180.54 135.5 Q 180.54  135.5 182.31 134.9 Q 182.31  134.9 185.3 134.03 Q 185.3  134.03 194.0 132.0 " fill="rgb(252,254,254)"/> <path d="M 102.0 240.0 Q 102.0  240.0 101.21 254.77 Q 101.21  254.77 101.1 263.89 Q 101.1  263.89 101.31 270.34 Q 101.31  270.34 101.66 275.62 Q 101.66  275.62 102.07 280.01 Q 102.07  280.01 102.48 283.64 Q 102.48  283.64 102.9 286.33 Q 102.9  286.33 103.31 287.94 Q 103.31  287.94 103.66 288.83 Q 103.66  288.83 103.89 289.63 Q 103.89  289.63 104.04 290.63 Q 104.04  290.63 104.3 291.6 Q 104.3  291.6 107.61 292.28 Q 107.61  292.28 130.95 292.62 Q 130.95  292.62 194.42 292.63 Q 194.42  292.63 287.05 292.32 Q 287.05  292.32 366.76 291.78 Q 366.76  291.78 403.87 290.91 Q 403.87  290.91 411.58 289.1 Q 411.58  289.1 410.38 285.74 Q 410.38  285.74 408.75 281.31 Q 408.75  281.31 407.38 277.0 Q 407.38  277.0 406.56 273.51 Q 406.56  273.51 406.07 270.62 Q 406.07  270.62 405.66 267.85 Q 405.66  267.85 405.31 264.14 Q 405.31  264.14 405.1 258.16 Q 405.1  258.16 405.41 249.72 Q 405.41  249.72 407.0 240.0 " fill="rgb(244,130,32)"/> <path d="M 120.0 185.0 Q 120.0  185.0 118.94 187.32 Q 118.94  187.32 118.15 189.12 Q 118.15  189.12 117.38 190.45 Q 117.38  190.45 116.6 191.45 Q 116.6  191.45 115.94 192.32 Q 115.94  192.32 115.42 193.19 Q 115.42  193.19 114.97 194.05 Q 114.97  194.05 114.51 195.0 Q 114.51  195.0 113.87 196.38 Q 113.87  196.38 112.92 198.56 Q 112.92  198.56 111.65 201.67 Q 111.65  201.67 110.16 205.71 Q 110.16  205.71 108.54 210.5 Q 108.54  210.5 106.98 215.65 Q 106.98  215.65 105.62 220.74 Q 105.62  220.74 104.63 225.38 Q 104.63  225.38 104.13 229.2 Q 104.13  229.2 103.92 232.16 Q 103.92  232.16 103.7 234.33 Q 103.7  234.33 103.34 235.87 Q 103.34  235.87 102.95 237.03 Q 102.95  237.03 109.39 237.96 Q 109.39  237.96 145.22 238.61 Q 145.22  238.61 226.9 238.89 Q 226.9  238.89 322.55 238.73 Q 322.55  238.73 384.97 238.05 Q 384.97  238.05 405.32 236.9 Q 405.32  236.9 407.23 235.45 Q 407.23  235.45 407.64 233.61 Q 407.64  233.61 408.43 230.88 Q 408.43  230.88 409.73 226.9 Q 409.73  226.9 411.35 222.33 Q 411.35  222.33 413.11 218.06 Q 413.11  218.06 415.27 213.82 Q 415.27  213.82 418.5 208.47 Q 418.5  208.47 424.2 200.19 Q 424.2  200.19 435.0 186.0 " fill="rgb(249,184,42)"/> <path d="M 104.0 293.0 Q 104.0  293.0 104.48 297.4 Q 104.48  297.4 105.35 300.56 Q 105.35  300.56 105.88 303.53 Q 105.88  303.53 106.09 306.41 Q 106.09  306.41 106.34 308.89 Q 106.34  308.89 106.91 311.53 Q 106.91  311.53 107.96 315.59 Q 107.96  315.59 109.44 321.08 Q 109.44  321.08 110.89 326.27 Q 110.89  326.27 112.05 330.09 Q 112.05  330.09 113.12 333.36 Q 113.12  333.36 114.32 336.91 Q 114.32  336.91 115.54 340.28 Q 115.54  340.28 116.62 342.72 Q 116.62  342.72 117.42 344.29 Q 117.42  344.29 117.86 345.41 Q 117.86  345.41 118.1 346.22 Q 118.1  346.22 118.7 346.54 Q 118.7  346.54 131.81 346.4 Q 131.81  346.4 187.52 346.14 Q 187.52  346.14 294.88 345.93 Q 294.88  345.93 400.6 345.41 Q 400.6  345.41 453.01 344.24 Q 453.01  344.24 463.67 342.85 Q 463.67  342.85 462.53 341.81 Q 462.53  341.81 460.44 340.92 Q 460.44  340.92 457.29 339.57 Q 457.29  339.57 453.54 337.74 Q 453.54  337.74 450.37 336.06 Q 450.37  336.06 448.33 334.87 Q 448.33  334.87 446.89 333.92 Q 446.89  333.92 445.49 332.98 Q 445.49  332.98 443.89 331.83 Q 443.89  331.83 441.9 330.3 Q 441.9  330.3 439.35 328.19 Q 439.35  328.19 436.09 325.39 Q 436.09  325.39 432.77 322.45 Q 432.77  322.45 430.45 320.37 Q 430.45  320.37 429.3 319.24 Q 429.3  319.24 428.43 318.2 Q 428.43  318.2 427.27 316.69 Q 427.27  316.69 425.94 314.92 Q 425.94  314.92 424.53 313.03 Q 424.53  313.03 422.83 310.64 Q 422.83  310.64 420.66 307.47 Q 420.66  307.47 418.49 304.19 Q 418.49  304.19 417.02 301.86 Q 417.02  301.86 416.28 300.42 Q 416.28  300.42 415.81 299.07 Q 415.81  299.07 415.34 297.46 Q 415.34  297.46 414.8 295.84 Q 414.8  295.84 413.93 294.37 Q 413.93  294.37 412.0 293.0 " fill="rgb(221,59,63)"/> <path d="M 119.0 347.0 Q 119.0  347.0 119.27 349.45 Q 119.27  349.45 120.01 351.79 Q 120.01  351.79 121.08 354.46 Q 121.08  354.46 122.41 357.53 Q 122.41  357.53 123.97 360.87 Q 123.97  360.87 125.82 364.64 Q 125.82  364.64 128.13 369.26 Q 128.13  369.26 130.85 374.67 Q 130.85  374.67 133.5 379.83 Q 133.5  379.83 135.68 383.88 Q 135.68  383.88 137.44 386.99 Q 137.44  386.99 138.94 389.56 Q 138.94  389.56 140.25 391.73 Q 140.25  391.73 141.37 393.51 Q 141.37  393.51 142.33 394.99 Q 142.33  394.99 143.22 396.33 Q 143.22  396.33 144.11 397.64 Q 144.11  397.64 145.0 398.83 Q 145.0  398.83 150.04 399.85 Q 150.04  399.85 180.02 400.66 Q 180.02  400.66 254.6 401.27 Q 254.6  401.27 347.69 401.54 Q 347.69  401.54 411.17 401.32 Q 411.17  401.32 432.58 400.6 Q 432.58  400.6 435.22 399.55 Q 435.22  399.55 436.23 398.15 Q 436.23  398.15 437.67 396.0 Q 437.67  396.0 439.74 392.89 Q 439.74  392.89 441.98 389.47 Q 441.98  389.47 443.85 386.53 Q 443.85  386.53 445.33 384.12 Q 445.33  384.12 446.67 381.89 Q 446.67  381.89 448.05 379.57 Q 448.05  379.57 449.56 376.99 Q 449.56  376.99 451.18 374.17 Q 451.18  374.17 452.67 371.5 Q 452.67  371.5 453.85 369.28 Q 453.85  369.28 454.89 367.21 Q 454.89  367.21 456.03 364.93 Q 456.03  364.93 457.1 362.64 Q 457.1  362.64 457.78 360.85 Q 457.78  360.85 458.35 359.05 Q 458.35  359.05 459.71 355.82 Q 459.71  355.82 462.02 350.99 Q 462.02  350.99 464.0 347.0 " fill="rgb(147,63,152)"/> <path d="M 199.0 132.0 Q 199.0  132.0 192.35 133.39 Q 192.35  133.39 187.18 134.56 Q 187.18  134.56 184.06 135.36 Q 184.06  135.36 182.3 135.9 Q 182.3  135.9 180.84 136.39 Q 180.84  136.39 179.05 137.05 Q 179.05  137.05 176.5 138.09 Q 176.5  138.09 172.99 139.65 Q 172.99  139.65 168.41 141.83 Q 168.41  141.83 163.16 144.56 Q 163.16  144.56 157.94 147.63 Q 157.94  147.63 153.27 150.77 Q 153.27  150.77 149.34 153.68 Q 149.34  153.68 145.84 156.58 Q 145.84  156.58 141.63 160.48 Q 141.63  160.48 136.46 165.59 Q 136.46  165.59 131.72 170.49 Q 131.72  170.49 128.45 174.11 Q 128.45  174.11 126.25 176.77 Q 126.25  176.77 124.58 178.94 Q 124.58  178.94 123.24 180.88 Q 123.24  180.88 126.76 182.72 Q 126.76  182.72 162.06 184.16 Q 162.06  184.16 253.24 184.87 Q 253.24  184.87 359.8 185.22 Q 359.8  185.22 420.98 185.75 Q 420.98  185.75 436.42 186.18 Q 436.42  186.18 437.98 185.81 Q 437.98  185.81 440.06 184.31 Q 440.06  184.31 443.85 181.71 Q 443.85  181.71 448.56 178.61 Q 448.56  178.61 451.85 176.14 Q 451.85  176.14 452.72 174.56 Q 452.72  174.56 452.01 172.97 Q 452.01  172.97 450.3 170.73 Q 450.3  170.73 447.56 167.68 Q 447.56  167.68 443.93 163.98 Q 443.93  163.98 440.2 160.39 Q 440.2  160.39 437.01 157.55 Q 437.01  157.55 434.38 155.37 Q 434.38  155.37 432.19 153.66 Q 432.19  153.66 430.24 152.18 Q 430.24  152.18 428.33 150.76 Q 428.33  150.76 426.33 149.33 Q 426.33  149.33 424.11 147.89 Q 424.11  147.89 421.41 146.29 Q 421.41  146.29 417.98 144.34 Q 417.98  144.34 414.07 142.22 Q 414.07  142.22 410.29 140.35 Q 410.29  140.35 406.71 138.79 Q 406.71  138.79 402.94 137.37 Q 402.94  137.37 399.08 136.05 Q 399.08  136.05 395.84 135.03 Q 395.84  135.03 393.49 134.38 Q 393.49  134.38 391.56 133.89 Q 391.56  133.89 389.62 133.41 Q 389.62  133.41 387.56 132.94 Q 387.56  132.94 384.82 132.49 Q 384.82  132.49 379.69 132.16 Q 379.69  132.16 371.25 132.04 Q 371.25  132.04 362.47 132.15 Q 362.47  132.15 356.4 132.49 Q 356.4  132.49 352.01 133.16 Q 352.01  133.16 347.26 134.22 Q 347.26  134.22 342.33 135.47 Q 342.33  135.47 338.28 136.62 Q 338.28  136.62 334.89 137.7 Q 334.89  137.7 331.27 138.91 Q 331.27  138.91 327.25 140.35 Q 327.25  140.35 323.23 142.0 Q 323.23  142.0 319.64 143.6 Q 319.64  143.6 316.91 144.64 Q 316.91  144.64 315.06 145.07 Q 315.06  145.07 313.61 145.48 Q 313.61  145.48 312.18 146.2 Q 312.18  146.2 310.76 146.95 Q 310.76  146.95 309.28 147.54 Q 309.28  147.54 307.54 148.03 Q 307.54  148.03 305.41 148.51 Q 305.41  148.51 302.94 148.98 Q 302.94  148.98 300.15 149.44 Q 300.15  149.44 296.62 149.8 Q 296.62  149.8 291.99 149.95 Q 291.99  149.95 287.02 149.89 Q 287.02  149.89 282.77 149.6 Q 282.77  149.6 279.4 149.17 Q 279.4  149.17 276.57 148.69 Q 276.57  148.69 273.72 148.07 Q 273.72  148.07 270.15 147.11 Q 270.15  147.11 266.16 145.94 Q 266.16  145.94 262.97 144.96 Q 262.97  144.96 260.29 144.02 Q 260.29  144.02 256.01 142.33 Q 256.01  142.33 249.76 139.81 Q 249.76  139.81 244.17 137.62 Q 244.17  137.62 240.42 136.39 Q 240.42  136.39 236.09 135.27 Q 236.09  135.27 229.44 133.65 Q 229.44  133.65 222.0 132.0 " fill="rgb(103,186,74)"/> <path d="M 145.0 400.0 Q 145.0  400.0 146.77 402.03 Q 146.77  402.03 147.43 403.14 Q 147.43  403.14 148.43 404.44 Q 148.43  404.44 150.21 406.7 Q 150.21  406.7 152.79 410.44 Q 152.79  410.44 155.58 414.7 Q 155.58  414.7 157.81 418.0 Q 157.81  418.0 159.6 420.41 Q 159.6  420.41 161.58 422.86 Q 161.58  422.86 164.4 426.09 Q 164.4  426.09 168.67 430.59 Q 168.67  430.59 173.83 435.77 Q 173.83  435.77 178.25 439.97 Q 178.25  439.97 181.48 442.71 Q 181.48  442.71 184.7 445.07 Q 184.7  445.07 188.49 447.61 Q 188.49  447.61 192.2 449.92 Q 192.2  449.92 195.3 451.61 Q 195.3  451.61 197.71 452.76 Q 197.71  452.76 199.52 453.49 Q 199.52  453.49 201.0 454.0 Q 201.0  454.0 202.5 454.49 Q 202.5  454.49 204.43 455.1 Q 204.43  455.1 207.24 455.86 Q 207.24  455.86 211.44 456.56 Q 211.44  456.56 217.34 456.91 Q 217.34  456.91 223.46 456.89 Q 223.46  456.89 227.74 456.62 Q 227.74  456.62 230.22 456.19 Q 230.22  456.19 232.14 455.71 Q 232.14  455.71 233.97 455.24 Q 233.97  455.24 235.64 454.76 Q 235.64  454.76 237.14 454.29 Q 237.14  454.29 238.57 453.81 Q 238.57  453.81 240.1 453.28 Q 240.1  453.28 241.92 452.61 Q 241.92  452.61 244.0 451.75 Q 244.0  451.75 245.82 450.81 Q 245.82  450.81 247.2 449.89 Q 247.2  449.89 248.67 449.1 Q 248.67  449.1 250.6 448.47 Q 250.6  448.47 252.5 447.83 Q 252.5  447.83 253.9 447.04 Q 253.9  447.04 255.05 446.24 Q 255.05  446.24 256.43 445.56 Q 256.43  445.56 258.83 444.73 Q 258.83  444.73 262.86 443.39 Q 262.86  443.39 267.56 441.88 Q 267.56  441.88 271.34 440.81 Q 271.34  440.81 274.3 440.19 Q 274.3  440.19 277.51 439.72 Q 277.51  439.72 281.84 439.31 Q 281.84  439.31 288.0 439.08 Q 288.0  439.08 295.23 439.06 Q 295.23  439.06 301.36 439.28 Q 301.36  439.28 305.5 439.67 Q 305.5  439.67 308.51 440.14 Q 308.51  440.14 311.35 440.74 Q 311.35  440.74 315.01 441.75 Q 315.01  441.75 319.86 443.36 Q 319.86  443.36 325.0 445.38 Q 325.0  445.38 329.61 447.59 Q 329.61  447.59 333.67 449.67 Q 333.67  449.67 337.21 451.34 Q 337.21  451.34 340.09 452.57 Q 340.09  452.57 342.17 453.37 Q 342.17  453.37 343.84 453.9 Q 343.84  453.9 345.56 454.38 Q 345.56  454.38 347.43 454.86 Q 347.43  454.86 349.34 455.33 Q 349.34  455.33 351.33 455.81 Q 351.33  455.81 353.51 456.28 Q 353.51  456.28 356.25 456.69 Q 356.25  456.69 360.05 456.92 Q 360.05  456.92 364.52 456.94 Q 364.52  456.94 368.42 456.72 Q 368.42  456.72 371.25 456.33 Q 371.25  456.33 373.47 455.86 Q 373.47  455.86 375.43 455.38 Q 375.43  455.38 377.16 454.9 Q 377.16  454.9 378.7 454.43 Q 378.7  454.43 380.14 453.95 Q 380.14  453.95 381.55 453.48 Q 381.55  453.48 382.83 453.0 Q 382.83  453.0 383.93 452.52 Q 383.93  452.52 384.9 452.05 Q 384.9  452.05 385.99 451.48 Q 385.99  451.48 388.04 450.23 Q 388.04  450.23 392.03 447.57 Q 392.03  447.57 398.03 442.98 Q 398.03  442.98 405.59 436.21 Q 405.59  436.21 413.06 428.84 Q 413.06  428.84 418.25 423.39 Q 418.25  423.39 421.38 419.71 Q 421.38  419.71 424.5 415.65 Q 424.5  415.65 428.02 410.95 Q 428.02  410.95 430.76 407.23 Q 430.76  407.23 432.19 405.15 Q 432.19  405.15 432.79 404.07 Q 432.79  404.07 433.06 403.36 Q 433.06  403.36 433.44 402.69 Q 433.44  402.69 434.01 402.0 Q 434.01  402.0 434.11 401.86 Q 434.11  401.86 392.38 402.37 Q 392.38  402.37 147.0 402.0 " fill="rgb(0,155,217)"/> <path d="M 363.0 31.0 Q 363.0  31.0 364.97 34.67 Q 364.97  34.67 365.71 39.24 Q 365.71  39.24 365.94 43.73 Q 365.94  43.73 365.88 47.93 Q 365.88  47.93 365.59 51.88 Q 365.59  51.88 365.16 55.44 Q 365.16  55.44 364.68 58.41 Q 364.68  58.41 364.21 60.86 Q 364.21  60.86 363.73 63.0 Q 363.73  63.0 363.13 65.28 Q 363.13  65.28 362.2 68.3 Q 362.2  68.3 360.94 72.08 Q 360.94  72.08 359.53 75.91 Q 359.53  75.91 358.06 79.45 Q 358.06  79.45 356.46 82.96 Q 356.46  82.96 354.7 86.55 Q 354.7  86.55 352.98 89.84 Q 352.98  89.84 351.46 92.53 Q 351.46  92.53 350.17 94.67 Q 350.17  94.67 349.06 96.39 Q 349.06  96.39 347.96 97.98 Q 347.96  97.98 346.67 99.75 Q 346.67  99.75 344.96 101.94 Q 344.96  101.94 342.71 104.65 Q 342.71  104.65 340.44 107.3 Q 340.44  107.3 338.95 109.0 Q 338.95  109.0 338.22 109.78 Q 338.22  109.78 337.74 110.26 Q 337.74  110.26 337.26 110.74 Q 337.26  110.74 336.78 111.22 Q 336.78  111.22 335.94 112.0 Q 335.94  112.0 334.04 113.7 Q 334.04  113.7 330.72 116.51 Q 330.72  116.51 326.26 119.96 Q 326.26  119.96 321.2 123.48 Q 321.2  123.48 316.53 126.45 Q 316.53  126.45 312.97 128.47 Q 312.97  128.47 310.17 129.83 Q 310.17  129.83 307.59 130.94 Q 307.59  130.94 304.7 132.04 Q 304.7  132.04 301.14 133.27 Q 301.14  133.27 297.54 134.45 Q 297.54  134.45 294.69 135.28 Q 294.69  135.28 292.04 135.84 Q 292.04  135.84 288.55 136.31 Q 288.55  136.31 284.59 136.71 Q 284.59  136.71 281.35 136.93 Q 281.35  136.93 279.2 136.86 Q 279.2  136.86 277.74 136.41 Q 277.74  136.41 276.7 135.62 Q 276.7  135.62 275.94 134.67 Q 275.94  134.67 275.42 133.11 Q 275.42  133.11 275.12 129.42 Q 275.12  129.42 275.04 123.36 Q 275.04  123.36 275.19 117.44 Q 275.19  117.44 275.54 113.58 Q 275.54  113.58 276.0 111.0 Q 276.0  111.0 276.49 108.6 Q 276.49  108.6 277.09 105.98 Q 277.09  105.98 277.86 103.04 Q 277.86  103.04 278.67 100.21 Q 278.67  100.21 279.34 98.04 Q 279.34  98.04 280.04 96.18 Q 280.04  96.18 281.06 93.92 Q 281.06  93.92 282.54 90.93 Q 282.54  90.93 284.44 87.12 Q 284.44  87.12 286.49 83.09 Q 286.49  83.09 288.18 79.94 Q 288.18  79.94 289.35 77.98 Q 289.35  77.98 290.32 76.53 Q 290.32  76.53 291.31 75.06 Q 291.31  75.06 292.44 73.46 Q 292.44  73.46 293.81 71.61 Q 293.81  71.61 295.55 69.4 Q 295.55  69.4 297.72 66.78 Q 297.72  66.78 300.33 63.83 Q 300.33  63.83 303.33 60.71 Q 303.33  60.71 306.35 57.79 Q 306.35  57.79 309.03 55.43 Q 309.03  55.43 311.35 53.54 Q 311.35  53.54 313.43 51.94 Q 313.43  51.94 315.37 50.47 Q 315.37  50.47 317.27 49.05 Q 317.27  49.05 319.24 47.63 Q 319.24  47.63 321.38 46.21 Q 321.38  46.21 323.62 44.86 Q 323.62  44.86 325.76 43.66 Q 325.76  43.66 327.84 42.58 Q 327.84  42.58 330.15 41.43 Q 330.15  41.43 332.85 40.1 Q 332.85  40.1 335.86 38.68 Q 335.86  38.68 338.98 37.31 Q 338.98  37.31 341.88 36.13 Q 341.88  36.13 345.71 34.87 Q 345.71  34.87 356.0 32.0 " fill="rgb(252,254,254)"/> <path d="M 363.0 32.0 Q 363.0  32.0 354.18 33.63 Q 354.18  33.63 347.83 35.25 Q 347.83  35.25 344.16 36.32 Q 344.16  36.32 341.89 37.12 Q 341.89  37.12 339.35 38.15 Q 339.35  38.15 336.49 39.39 Q 336.49  39.39 333.97 40.54 Q 333.97  40.54 331.77 41.61 Q 331.77  41.61 329.41 42.8 Q 329.41  42.8 326.78 44.14 Q 326.78  44.14 324.17 45.55 Q 324.17  45.55 321.78 46.97 Q 321.78  46.97 319.61 48.38 Q 319.61  48.38 317.62 49.79 Q 317.62  49.79 315.72 51.21 Q 315.72  51.21 313.81 52.65 Q 313.81  52.65 311.78 54.21 Q 311.78  54.21 309.54 55.99 Q 309.54  55.99 307.09 58.11 Q 307.09  58.11 304.43 60.61 Q 304.43  60.61 301.74 63.38 Q 301.74  63.38 299.22 66.19 Q 299.22  66.19 297.0 68.84 Q 297.0  68.84 295.18 71.13 Q 295.18  71.13 293.74 73.04 Q 293.74  73.04 292.56 74.69 Q 292.56  74.69 291.56 76.17 Q 291.56  76.17 290.61 77.59 Q 290.61  77.59 289.62 79.15 Q 289.62  79.15 288.48 81.15 Q 288.48  81.15 287.09 83.84 Q 287.09  83.84 285.34 87.32 Q 285.34  87.32 283.32 91.38 Q 283.32  91.38 281.6 94.98 Q 281.6  94.98 280.57 97.41 Q 280.57  97.41 279.88 99.5 Q 279.88  99.5 279.11 102.15 Q 279.11  102.15 278.31 105.11 Q 278.31  105.11 277.66 107.82 Q 277.66  107.82 277.15 110.25 Q 277.15  110.25 276.68 112.68 Q 276.68  112.68 276.29 115.96 Q 276.29  115.96 276.07 121.24 Q 276.07  121.24 276.07 127.55 Q 276.07  127.55 276.3 132.17 Q 276.3  132.17 276.89 134.22 Q 276.89  134.22 278.16 135.05 Q 278.16  135.05 280.34 135.53 Q 280.34  135.53 283.54 135.66 Q 283.54  135.66 287.52 135.41 Q 287.52  135.41 291.24 134.97 Q 291.24  134.97 294.01 134.45 Q 294.01  134.45 296.69 133.71 Q 296.69  133.71 300.11 132.61 Q 300.11  132.61 303.76 131.37 Q 303.76  131.37 306.81 130.25 Q 306.81  130.25 309.42 129.17 Q 309.42  129.17 312.09 127.92 Q 312.09  127.92 315.35 126.15 Q 315.35  126.15 319.68 123.48 Q 319.68  123.48 324.7 120.08 Q 324.7  120.08 329.42 116.56 Q 329.42  116.56 333.17 113.45 Q 333.17  113.45 335.73 111.17 Q 335.73  111.17 337.38 109.57 Q 337.38  109.57 339.1 107.68 Q 339.1  107.68 341.4 105.01 Q 341.4  105.01 343.7 102.25 Q 343.7  102.25 345.47 100.01 Q 345.47  100.01 346.8 98.21 Q 346.8  98.21 347.91 96.61 Q 347.91  96.61 349.0 94.94 Q 349.0  94.94 350.25 92.88 Q 350.25  92.88 351.73 90.3 Q 351.73  90.3 353.42 87.11 Q 353.42  87.11 355.17 83.56 Q 355.17  83.56 356.8 80.04 Q 356.8  80.04 358.27 76.55 Q 358.27  76.55 359.69 72.79 Q 359.69  72.79 360.99 68.97 Q 360.99  68.97 361.98 65.78 Q 361.98  65.78 362.63 63.42 Q 362.63  63.42 363.12 61.31 Q 363.12  61.31 363.6 58.82 Q 363.6  58.82 364.16 55.33 Q 364.16  55.33 364.73 49.79 Q 364.73  49.79 365.0 40.0 " fill="rgb(103,186,74)"/></svg>