<?xml version="1.0" standalone="no"?>
<svg xmlns="http://www.w3.org/2000/svg" viewBox="0 0 13 15" version="1.1"><rect x="0" y="0" width="14" height="16" fill="white"/> <path d="M 0.0 0.0 Q 0.0  0.0 0.7 3.51 Q 0.7  3.51 2.27 4.77 Q 2.27  4.77 3.92 4.83 Q 3.92  4.83 5.04 4.62 Q 5.04  4.62 5.87 4.38 Q 5.87  4.38 6.83 4.17 Q 6.83  4.17 8.22 4.04 Q 8.22  4.04 9.83 3.91 Q 9.83  3.91 11.33 3.67 Q 11.33  3.67 12.46 3.23 Q 12.46  3.23 13.21 2.6 Q 13.21  2.6 13.67 1.83 Q 13.67  1.83 13.38 0.99 Q 13.38  0.99 9.84 0.29 Q 9.84  0.29 0.0 0.0 " fill="rgb(255,2,1)"/> <path d="M 12.0 2.0 Q 12.0  2.0 10.34 3.47 Q 10.34  3.47 8.07 4.01 Q 8.07  4.01 6.05 4.2 Q 6.05  4.2 4.82 4.43 Q 4.82  4.43 4.03 4.69 Q 4.03  4.69 3.19 4.89 Q 3.19  4.89 2.11 5.06 Q 2.11  5.06 1.08 5.46 Q 1.08  5.46 0.39 6.34 Q 0.39  6.34 0.42 7.61 Q 0.42  7.61 1.6 8.84 Q 1.6  8.84 4.31 9.6 Q 4.31  9.6 7.92 9.53 Q 7.92  9.53 11.23 8.33 Q 11.23  8.33 13.13 5.87 Q 13.13  5.87 13.36 3.23 Q 13.36  3.23 12.0 2.0 " fill="rgb(255,5,255)"/> <path d="M 0 10 Q 0  10 0 16 Q 0  16 5 16 Q 5  16 5 10 Q 5  10 0 10 " fill="rgb(12,255,255)"/> <path d="M 5 10 Q 5  10 5 16 Q 5  16 7 16 Q 7  16 7 10 Q 7  10 5 10 " fill="rgb(7,255,3)"/> <path d="M 7 10 Q 7  10 7 16 Q 7  16 14 16 Q 14  16 14 10 Q 14  10 7 10 " fill="rgb(255,128,127)"/></svg>