<?xml version="1.0" standalone="no"?>
<svg xmlns="http://www.w3.org/2000/svg" viewBox="0 0 449 449" version="1.1"><rect x="0" y="0" width="450" height="450" fill="white"/> <path d="M 0.0 0.0 Q 0.0  0.0 24.87 164.94 Q 24.87  164.94 89.01 274.9 Q 89.01  274.9 176.72 329.88 Q 176.72  329.88 272.28 329.88 Q 272.28  329.88 359.99 274.9 Q 359.99  274.9 424.13 164.94 Q 424.13  164.94 449.0 0.0 " fill="rgb(253,253,253)"/> <path d="M 248.0 72.0 Q 248.0  72.0 262.24 72.3 Q 262.24  72.3 269.43 72.91 Q 269.43  72.91 273.83 73.52 Q 273.83  73.52 277.71 74.31 Q 277.71  74.31 282.74 75.44 Q 282.74  75.44 290.42 76.47 Q 290.42  76.47 301.41 76.91 Q 301.41  76.91 312.61 76.85 Q 312.61  76.85 320.69 76.49 Q 320.69  76.49 326.31 75.89 Q 326.31  75.89 331.08 75.1 Q 331.08  75.1 335.47 74.52 Q 335.47  74.52 339.42 74.55 Q 339.42  74.55 341.89 75.09 Q 341.89  75.09 341.81 75.97 Q 341.81  75.97 339.67 77.31 Q 339.67  77.31 336.38 79.29 Q 336.38  79.29 332.65 81.68 Q 332.65  81.68 329.15 84.14 Q 329.15  84.14 326.97 86.38 Q 326.97  86.38 327.14 88.24 Q 327.14  88.24 329.6 90.03 Q 329.6  90.03 333.73 92.12 Q 333.73  92.12 338.04 94.19 Q 338.04  94.19 340.99 95.74 Q 340.99  95.74 342.97 97.06 Q 342.97  97.06 345.12 98.73 Q 345.12  98.73 347.87 101.09 Q 347.87  101.09 351.25 104.29 Q 351.25  104.29 354.67 107.79 Q 354.67  107.79 357.43 110.88 Q 357.43  110.88 359.78 113.9 Q 359.78  113.9 362.34 117.56 Q 362.34  117.56 364.82 121.35 Q 364.82  121.35 366.6 124.32 Q 366.6  124.32 367.85 126.71 Q 367.85  126.71 369.15 129.31 Q 369.15  129.31 370.6 132.41 Q 370.6  132.41 372.07 135.94 Q 372.07  135.94 373.36 139.34 Q 373.36  139.34 374.27 141.87 Q 374.27  141.87 374.95 143.96 Q 374.95  143.96 375.71 146.58 Q 375.71  146.58 376.19 149.31 Q 376.19  149.31 375.75 151.04 Q 375.75  151.04 374.58 151.64 Q 374.58  151.64 373.4 151.59 Q 373.4  151.59 372.63 151.45 Q 372.63  151.45 372.48 151.81 Q 372.48  151.81 372.92 152.65 Q 372.92  152.65 373.7 153.67 Q 373.7  153.67 374.81 155.17 Q 374.81  155.17 376.35 157.81 Q 376.35  157.81 378.06 161.21 Q 378.06  161.21 379.49 164.35 Q 379.49  164.35 380.51 166.83 Q 380.51  166.83 381.25 168.82 Q 381.25  168.82 381.96 171.13 Q 381.96  171.13 382.98 175.0 Q 382.98  175.0 384.2 179.97 Q 384.2  179.97 385.16 184.34 Q 385.16  184.34 385.7 187.75 Q 385.7  187.75 385.94 190.99 Q 385.94  190.99 386.08 194.26 Q 386.08  194.26 386.34 197.22 Q 386.34  197.22 386.84 199.98 Q 386.84  199.98 387.59 202.96 Q 387.59  202.96 388.45 206.03 Q 388.45  206.03 389.19 208.5 Q 389.19  208.5 389.75 210.6 Q 389.75  210.6 390.23 213.31 Q 390.23  213.31 390.33 216.08 Q 390.33  216.08 389.37 216.85 Q 389.37  216.85 387.56 215.41 Q 387.56  215.41 386.07 213.5 Q 386.07  213.5 385.35 213.37 Q 385.35  213.37 385.08 217.6 Q 385.08  217.6 384.94 225.71 Q 384.94  225.71 384.7 233.92 Q 384.7  233.92 384.28 240.26 Q 384.28  240.26 383.79 245.08 Q 383.79  245.08 383.29 248.83 Q 383.29  248.83 382.79 251.86 Q 382.79  251.86 382.3 254.44 Q 382.3  254.44 381.8 256.71 Q 381.8  256.71 381.3 258.78 Q 381.3  258.78 380.81 260.77 Q 380.81  260.77 380.26 262.91 Q 380.26  262.91 379.54 265.56 Q 379.54  265.56 378.58 268.83 Q 378.58  268.83 377.37 272.51 Q 377.37  272.51 375.92 276.4 Q 375.92  276.4 374.23 280.36 Q 374.23  280.36 372.43 284.09 Q 372.43  284.09 370.87 287.0 Q 370.87  287.0 369.65 288.99 Q 369.65  288.99 368.43 290.72 Q 368.43  290.72 366.99 292.66 Q 366.99  292.66 365.3 294.84 Q 365.3  294.84 363.55 296.88 Q 363.55  296.88 362.18 297.73 Q 362.18  297.73 361.52 296.98 Q 361.52  296.98 361.59 295.35 Q 361.59  295.35 362.25 293.47 Q 362.25  293.47 363.02 291.49 Q 363.02  291.49 363.62 289.46 Q 363.62  289.46 364.12 287.28 Q 364.12  287.28 364.58 284.71 Q 364.58  284.71 364.88 281.29 Q 364.88  281.29 365.03 277.19 Q 365.03  277.19 365.23 273.96 Q 365.23  273.96 365.58 272.2 Q 365.58  272.2 365.88 270.13 Q 365.88  270.13 365.95 266.83 Q 365.95  266.83 365.78 263.9 Q 365.78  263.9 365.43 262.16 Q 365.43  262.16 365.13 259.79 Q 365.13  259.79 364.98 255.91 Q 364.98  255.91 364.79 252.85 Q 364.79  252.85 364.44 252.38 Q 364.44  252.38 364.13 253.55 Q 364.13  253.55 363.95 255.39 Q 363.95  255.39 363.6 257.86 Q 363.6  257.86 362.79 261.11 Q 362.79  261.11 361.49 265.38 Q 361.49  265.38 359.81 270.52 Q 359.81  270.52 358.19 275.25 Q 358.19  275.25 356.75 278.97 Q 356.75  278.97 354.59 283.67 Q 354.59  283.67 351.17 290.6 Q 351.17  290.6 347.61 297.42 Q 347.61  297.42 344.91 302.06 Q 344.91  302.06 342.52 305.71 Q 342.52  305.71 339.89 309.66 Q 339.89  309.66 337.4 313.3 Q 337.4  313.3 335.41 316.07 Q 335.41  316.07 333.26 318.75 Q 333.26  318.75 330.26 322.23 Q 330.26  322.23 326.27 326.57 Q 326.27  326.57 321.49 331.47 Q 321.49  331.47 316.83 336.0 Q 316.83  336.0 313.15 339.33 Q 313.15  339.33 310.21 341.8 Q 310.21  341.8 307.54 343.95 Q 307.54  343.95 304.75 346.1 Q 304.75  346.1 301.65 348.38 Q 301.65  348.38 298.77 350.42 Q 298.77  350.42 296.64 351.9 Q 296.64  351.9 294.78 353.1 Q 294.78  353.1 292.39 354.53 Q 292.39  354.53 288.23 356.79 Q 288.23  356.79 281.58 360.19 Q 281.58  360.19 274.67 363.59 Q 274.67  363.59 270.07 365.72 Q 270.07  365.72 267.11 366.9 Q 267.11  366.9 264.25 367.91 Q 264.25  367.91 260.92 369.03 Q 260.92  369.03 257.03 370.32 Q 257.03  370.32 253.26 371.54 Q 253.26  371.54 250.41 372.37 Q 250.41  372.37 248.15 372.93 Q 248.15  372.93 245.84 373.43 Q 245.84  373.43 243.39 373.92 Q 243.39  373.92 240.9 374.42 Q 240.9  374.42 238.3 374.91 Q 238.3  374.91 235.46 375.41 Q 235.46  375.41 232.18 375.91 Q 232.18  375.91 228.1 376.39 Q 228.1  376.39 222.19 376.78 Q 222.19  376.78 213.49 376.95 Q 213.49  376.95 203.99 376.88 Q 203.99  376.88 196.63 376.57 Q 196.63  376.57 191.6 376.11 Q 191.6  376.11 187.87 375.62 Q 187.87  375.62 184.84 375.12 Q 184.84  375.12 182.16 374.62 Q 182.16  374.62 179.64 374.13 Q 179.64  374.13 177.16 373.63 Q 177.16  373.63 174.78 373.13 Q 174.78  373.13 172.58 372.63 Q 172.58  372.63 170.36 372.04 Q 170.36  372.04 167.76 371.24 Q 167.76  371.24 164.58 370.19 Q 164.58  370.19 160.76 368.92 Q 160.76  368.92 156.8 367.57 Q 156.8  367.57 153.4 366.32 Q 153.4  366.32 149.55 364.64 Q 149.55  364.64 143.42 361.68 Q 143.42  361.68 136.01 357.91 Q 136.01  357.91 129.91 354.57 Q 129.91  354.57 125.52 351.89 Q 125.52  351.89 121.83 349.41 Q 121.83  349.41 118.47 347.01 Q 118.47  347.01 115.54 344.8 Q 115.54  344.8 112.78 342.59 Q 112.78  342.59 109.74 340.04 Q 109.74  340.04 106.13 336.85 Q 106.13  336.85 101.87 332.8 Q 101.87  332.8 97.39 328.3 Q 97.39  328.3 93.51 324.16 Q 93.51  324.16 90.53 320.74 Q 90.53  320.74 88.33 318.05 Q 88.33  318.05 86.66 315.88 Q 86.66  315.88 85.16 313.88 Q 85.16  313.88 83.45 311.52 Q 83.45  311.52 81.2 308.26 Q 81.2  308.26 78.62 304.4 Q 78.62  304.4 76.41 300.95 Q 76.41  300.95 74.73 298.14 Q 74.73  298.14 73.23 295.39 Q 73.23  295.39 71.6 292.2 Q 71.6  292.2 69.62 288.25 Q 69.62  288.25 67.48 283.89 Q 67.48  283.89 65.73 280.14 Q 65.73  280.14 64.4 276.86 Q 64.4  276.86 62.92 272.67 Q 62.92  272.67 61.14 267.21 Q 61.14  267.21 59.4 261.29 Q 59.4  261.29 57.96 255.76 Q 57.96  255.76 56.94 251.45 Q 56.94  251.45 56.29 248.32 Q 56.29  248.32 55.79 245.34 Q 55.79  245.34 55.29 241.85 Q 55.29  241.85 54.8 237.68 Q 54.8  237.68 54.36 232.39 Q 54.36  232.39 54.09 225.18 Q 54.09  225.18 54.06 216.61 Q 54.06  216.61 54.28 208.97 Q 54.28  208.97 54.69 203.39 Q 54.69  203.39 55.18 199.26 Q 55.18  199.26 55.68 195.94 Q 55.68  195.94 56.18 192.93 Q 56.18  192.93 56.78 189.65 Q 56.78  189.65 57.7 185.39 Q 57.7  185.39 59.01 180.11 Q 59.01  180.11 60.49 174.83 Q 60.49  174.83 61.93 170.27 Q 61.93  170.27 63.21 166.62 Q 63.21  166.62 64.3 163.77 Q 64.3  163.77 65.3 161.25 Q 65.3  161.25 66.51 158.37 Q 66.51  158.37 68.52 154.07 Q 68.52  154.07 71.33 148.38 Q 71.33  148.38 73.97 143.3 Q 73.97  143.3 75.99 139.75 Q 75.99  139.75 78.1 136.41 Q 78.1  136.41 80.65 132.55 Q 80.65  132.55 83.02 129.08 Q 83.02  129.08 84.86 126.54 Q 84.86  126.54 86.57 124.32 Q 86.57  124.32 88.6 121.79 Q 88.6  121.79 91.33 118.57 Q 91.33  118.57 94.61 114.82 Q 94.61  114.82 97.25 111.87 Q 97.25  111.87 98.91 110.14 Q 98.91  110.14 101.48 107.74 Q 101.48  107.74 105.95 103.65 Q 105.95  103.65 110.53 99.55 Q 110.53  99.55 113.79 96.79 Q 113.79  96.79 116.18 94.9 Q 116.18  94.9 118.44 93.19 Q 118.44  93.19 121.31 91.17 Q 121.31  91.17 125.11 88.62 Q 125.11  88.62 129.17 86.02 Q 129.17  86.02 132.86 83.88 Q 132.86  83.88 136.2 82.36 Q 136.2  82.36 139.08 81.58 Q 139.08  81.58 140.76 81.53 Q 140.76  81.53 140.76 82.11 Q 140.76  82.11 139.73 82.9 Q 139.73  82.9 138.37 83.55 Q 138.37  83.55 136.89 84.22 Q 136.89  84.22 135.38 85.11 Q 135.38  85.11 133.73 86.24 Q 133.73  86.24 131.86 87.62 Q 131.86  87.62 129.74 89.24 Q 129.74  89.24 127.32 91.16 Q 127.32  91.16 124.41 93.58 Q 124.41  93.58 121.01 96.5 Q 121.01  96.5 118.13 99.03 Q 118.13  99.03 116.62 100.4 Q 116.62  100.4 115.83 101.17 Q 115.83  101.17 115.01 101.99 Q 115.01  101.99 114.18 102.82 Q 114.18  102.82 113.44 103.58 Q 113.44  103.58 112.22 104.94 Q 112.22  104.94 110.03 107.48 Q 110.03  107.48 107.44 110.54 Q 107.44  110.54 105.08 113.45 Q 105.08  113.45 102.5 116.93 Q 102.5  116.93 99.21 121.74 Q 99.21  121.74 95.73 127.13 Q 95.73  127.13 92.79 132.07 Q 92.79  132.07 90.36 136.62 Q 90.36  136.62 88.24 141.02 Q 88.24  141.02 86.48 144.98 Q 86.48  144.98 85.15 148.18 Q 85.15  148.18 83.97 151.28 Q 83.97  151.28 82.65 155.12 Q 82.65  155.12 81.19 159.84 Q 81.19  159.84 79.73 165.2 Q 79.73  165.2 78.48 170.35 Q 78.48  170.35 77.64 174.36 Q 77.64  174.36 77.08 177.53 Q 77.08  177.53 76.58 180.61 Q 76.58  180.61 76.09 184.51 Q 76.09  184.51 75.6 189.94 Q 75.6  189.94 75.22 195.71 Q 75.22  195.71 75.05 200.23 Q 75.05  200.23 75.12 204.38 Q 75.12  204.38 75.43 209.78 Q 75.43  209.78 75.89 215.68 Q 75.89  215.68 76.39 220.46 Q 76.39  220.46 76.89 224.09 Q 76.89  224.09 77.38 227.24 Q 77.38  227.24 77.88 230.05 Q 77.88  230.05 78.38 232.42 Q 78.38  232.42 78.87 234.49 Q 78.87  234.49 79.38 236.49 Q 79.38  236.49 79.97 238.68 Q 79.97  238.68 80.77 241.28 Q 80.77  241.28 81.82 244.47 Q 81.82  244.47 83.1 248.3 Q 83.1  248.3 84.45 252.25 Q 84.45  252.25 85.68 255.6 Q 85.68  255.6 87.09 258.92 Q 87.09  258.92 89.21 263.37 Q 89.21  263.37 91.73 268.36 Q 91.73  268.36 93.87 272.35 Q 93.87  272.35 95.77 275.52 Q 95.77  275.52 98.09 279.11 Q 98.09  279.11 100.66 282.94 Q 100.66  282.94 102.81 286.02 Q 102.81  286.02 104.62 288.44 Q 104.62  288.44 106.7 291.01 Q 106.7  291.01 109.66 294.38 Q 109.66  294.38 114.02 298.96 Q 114.02  298.96 119.11 304.02 Q 119.11  304.02 123.43 308.08 Q 123.43  308.08 126.59 310.79 Q 126.59  310.79 129.04 312.75 Q 129.04  312.75 131.06 314.28 Q 131.06  314.28 132.79 315.51 Q 132.79  315.51 134.34 316.56 Q 134.34  316.56 135.84 317.56 Q 135.84  317.56 137.47 318.62 Q 137.47  318.62 139.51 319.89 Q 139.51  319.89 142.51 321.6 Q 142.51  321.6 147.26 324.09 Q 147.26  324.09 153.21 327.03 Q 153.21  327.03 158.62 329.49 Q 158.62  329.49 162.64 331.1 Q 162.64  331.1 165.4 332.11 Q 165.4  332.11 167.5 332.81 Q 167.5  332.81 169.97 333.55 Q 169.97  333.55 173.04 334.41 Q 173.04  334.41 176.02 335.16 Q 176.02  335.16 178.65 335.73 Q 178.65  335.73 181.14 336.23 Q 181.14  336.23 183.74 336.72 Q 183.74  336.72 186.73 337.22 Q 186.73  337.22 191.06 337.66 Q 191.06  337.66 198.46 337.92 Q 198.46  337.92 208.14 337.94 Q 208.14  337.94 216.3 337.71 Q 216.3  337.71 221.37 337.29 Q 221.37  337.29 224.74 336.8 Q 224.74  336.8 227.46 336.3 Q 227.46  336.3 229.96 335.81 Q 229.96  335.81 232.55 335.26 Q 232.55  335.26 235.47 334.54 Q 235.47  334.54 238.57 333.69 Q 238.57  333.69 241.16 332.92 Q 241.16  332.92 243.0 332.33 Q 243.0  332.33 244.51 331.83 Q 244.51  331.83 246.1 331.28 Q 246.1  331.28 248.01 330.58 Q 248.01  330.58 250.36 329.63 Q 250.36  329.63 253.04 328.43 Q 253.04  328.43 256.11 326.94 Q 256.11  326.94 259.9 325.05 Q 259.9  325.05 264.44 322.71 Q 264.44  322.71 269.17 320.05 Q 269.17  320.05 273.52 317.29 Q 273.52  317.29 277.0 314.92 Q 277.0  314.92 279.48 313.13 Q 279.48  313.13 281.51 311.61 Q 281.51  311.61 283.98 309.6 Q 283.98  309.6 288.29 305.6 Q 288.29  305.6 294.51 299.44 Q 294.51  299.44 300.06 293.71 Q 300.06  293.71 303.25 290.13 Q 303.25  290.13 304.97 287.92 Q 304.97  287.92 306.18 286.21 Q 306.18  286.21 307.2 284.7 Q 307.2  284.7 308.16 283.25 Q 308.16  283.25 308.97 281.94 Q 308.97  281.94 309.58 280.83 Q 309.58  280.83 310.09 279.83 Q 310.09  279.83 310.61 278.74 Q 310.61  278.74 311.29 277.22 Q 311.29  277.22 312.13 275.15 Q 312.13  275.15 312.94 273.05 Q 312.94  273.05 313.58 271.17 Q 313.58  271.17 314.26 268.81 Q 314.26  268.81 315.13 265.33 Q 315.13  265.33 316.11 260.76 Q 316.11  260.76 317.08 255.56 Q 317.08  255.56 317.91 251.14 Q 317.91  251.14 318.53 248.56 Q 318.53  248.56 319.04 247.25 Q 319.04  247.25 319.51 246.47 Q 319.51  246.47 319.85 245.78 Q 319.85  245.78 319.93 245.04 Q 319.93  245.04 319.64 244.85 Q 319.64  244.85 318.91 245.69 Q 318.91  245.69 317.96 247.24 Q 317.96  247.24 316.94 249.09 Q 316.94  249.09 315.8 251.06 Q 315.8  251.06 314.45 253.04 Q 314.45  253.04 312.98 255.03 Q 312.98  255.03 311.34 257.16 Q 311.34  257.16 308.83 260.17 Q 308.83  260.17 304.93 264.55 Q 304.93  264.55 300.4 269.43 Q 300.4  269.43 296.11 273.85 Q 296.11  273.85 291.95 277.89 Q 291.95  277.89 287.71 281.78 Q 287.71  281.78 283.82 285.2 Q 283.82  285.2 280.65 287.84 Q 280.65  287.84 277.53 290.19 Q 277.53  290.19 273.6 292.88 Q 273.6  292.88 268.57 295.94 Q 268.57  295.94 262.56 299.17 Q 262.56  299.17 256.91 301.97 Q 256.91  301.97 253.01 303.76 Q 253.01  303.76 250.53 304.76 Q 250.53  304.76 248.7 305.42 Q 248.7  305.42 247.03 305.94 Q 247.03  305.94 245.21 306.44 Q 245.21  306.44 243.26 306.94 Q 243.26  306.94 241.24 307.43 Q 241.24  307.43 239.02 307.93 Q 239.02  307.93 236.4 308.41 Q 236.4  308.41 233.6 308.79 Q 233.6  308.79 230.99 308.96 Q 230.99  308.96 228.94 308.87 Q 228.94  308.87 227.67 308.57 Q 227.67  308.57 226.47 308.22 Q 226.47  308.22 224.42 308.01 Q 224.42  308.01 221.84 307.76 Q 221.84  307.76 219.59 307.14 Q 219.59  307.14 218.62 306.33 Q 218.62  306.33 219.71 305.65 Q 219.71  305.65 222.21 305.11 Q 222.21  305.11 224.87 304.62 Q 224.87  304.62 227.28 304.12 Q 227.28  304.12 229.48 303.61 Q 229.48  303.61 231.71 302.91 Q 231.71  302.91 234.3 301.78 Q 234.3  301.78 237.19 300.08 Q 237.19  300.08 240.1 297.75 Q 240.1  297.75 242.2 295.59 Q 242.2  295.59 242.52 294.68 Q 242.52  294.68 241.24 295.06 Q 241.24  295.06 239.18 296.12 Q 239.18  296.12 236.98 297.33 Q 236.98  297.33 235.07 298.24 Q 235.07  298.24 233.39 298.84 Q 233.39  298.84 231.62 299.33 Q 231.62  299.33 229.68 299.83 Q 229.68  299.83 227.63 300.32 Q 227.63  300.32 224.69 300.73 Q 224.69  300.73 219.69 300.94 Q 219.69  300.94 213.66 300.91 Q 213.66  300.91 208.98 300.63 Q 208.98  300.63 205.97 300.19 Q 205.97  300.19 203.48 299.7 Q 203.48  299.7 201.16 299.2 Q 201.16  299.2 199.22 298.7 Q 199.22  298.7 197.62 298.21 Q 197.62  298.21 196.08 297.68 Q 196.08  297.68 193.74 296.72 Q 193.74  296.72 189.37 294.65 Q 189.37  294.65 183.45 291.61 Q 183.45  291.61 177.84 288.41 Q 177.84  288.41 173.44 285.59 Q 173.44  285.59 170.2 283.34 Q 170.2  283.34 166.9 280.59 Q 166.9  280.59 161.38 275.31 Q 161.38  275.31 154.33 268.25 Q 154.33  268.25 148.95 262.62 Q 148.95  262.62 146.17 259.42 Q 146.17  259.42 144.65 257.4 Q 144.65  257.4 143.52 255.77 Q 143.52  255.77 142.52 254.27 Q 142.52  254.27 141.46 252.65 Q 141.46  252.65 140.23 250.68 Q 140.23  250.68 138.87 248.41 Q 138.87  248.41 137.62 246.17 Q 137.62  246.17 136.49 243.98 Q 136.49  243.98 135.26 241.52 Q 135.26  241.52 133.91 238.76 Q 133.91  238.76 132.65 236.01 Q 132.65  236.01 131.47 233.04 Q 131.47  233.04 130.01 228.96 Q 130.01  228.96 128.36 224.01 Q 128.36  224.01 127.06 219.89 Q 127.06  219.89 126.32 217.26 Q 126.32  217.26 125.81 215.23 Q 125.81  215.23 125.31 213.09 Q 125.31  213.09 124.82 210.44 Q 124.82  210.44 124.42 207.11 Q 124.42  207.11 124.36 203.23 Q 124.36  203.23 124.69 199.69 Q 124.69  199.69 125.17 198.45 Q 125.17  198.45 125.67 199.99 Q 125.67  199.99 126.16 202.46 Q 126.16  202.46 126.66 204.63 Q 126.66  204.63 127.16 206.63 Q 127.16  206.63 127.75 208.84 Q 127.75  208.84 128.65 211.85 Q 128.65  211.85 129.91 215.67 Q 129.91  215.67 131.18 219.29 Q 131.18  219.29 132.31 222.2 Q 132.31  222.2 133.51 224.92 Q 133.51  224.92 134.9 227.75 Q 134.9  227.75 136.38 230.53 Q 136.38  230.53 137.99 233.27 Q 137.99  233.27 140.06 236.54 Q 140.06  236.54 142.73 240.51 Q 142.73  240.51 145.68 244.56 Q 145.68  244.56 148.66 248.21 Q 148.66  248.21 151.64 251.52 Q 151.64  251.52 154.62 254.57 Q 154.62  254.57 157.6 257.37 Q 157.6  257.37 160.5 259.9 Q 160.5  259.9 163.12 262.03 Q 163.12  262.03 165.3 263.71 Q 165.3  263.71 167.13 265.04 Q 167.13  265.04 168.73 266.15 Q 168.73  266.15 170.23 267.16 Q 170.23  267.16 171.79 268.18 Q 171.79  268.18 173.62 269.35 Q 173.62  269.35 175.96 270.75 Q 175.96  270.75 178.92 272.39 Q 178.92  272.39 182.44 274.2 Q 182.44  274.2 185.86 275.83 Q 185.86  275.83 188.66 277.05 Q 188.66  277.05 190.86 277.91 Q 190.86  277.91 192.61 278.53 Q 192.61  278.53 194.13 279.04 Q 194.13  279.04 195.64 279.54 Q 195.64  279.54 197.29 280.04 Q 197.29  280.04 199.42 280.51 Q 199.42  280.51 203.11 280.85 Q 203.11  280.85 208.78 280.96 Q 208.78  280.96 214.19 280.82 Q 214.19  280.82 217.31 280.46 Q 217.31  280.46 218.87 279.99 Q 218.87  279.99 220.02 279.47 Q 220.02  279.47 221.18 278.82 Q 221.18  278.82 222.55 277.93 Q 222.55  277.93 224.17 276.67 Q 224.17  276.67 225.99 274.97 Q 225.99  274.97 227.81 273.03 Q 227.81  273.03 229.41 271.08 Q 229.41  271.08 230.64 269.38 Q 230.64  269.38 231.44 268.08 Q 231.44  268.08 231.98 267.04 Q 231.98  267.04 232.48 266.03 Q 232.48  266.03 232.97 264.9 Q 232.97  264.9 233.45 263.49 Q 233.45  263.49 233.81 261.36 Q 233.81  261.36 233.96 258.3 Q 233.96  258.3 233.85 255.36 Q 233.85  255.36 233.53 253.66 Q 233.53  253.66 233.19 252.33 Q 233.19  252.33 232.98 250.3 Q 232.98  250.3 232.58 248.46 Q 232.58  248.46 231.61 248.1 Q 231.61  248.1 230.33 248.74 Q 230.33  248.74 229.17 249.4 Q 229.17  249.4 228.14 249.93 Q 228.14  249.93 227.12 250.43 Q 227.12  250.43 225.89 250.92 Q 225.89  250.92 224.18 251.41 Q 224.18  251.41 221.45 251.79 Q 221.45  251.79 217.28 251.94 Q 217.28  251.94 212.51 251.75 Q 212.51  251.75 208.37 251.12 Q 208.37  251.12 205.3 250.2 Q 205.3  250.2 203.46 249.22 Q 203.46  249.22 203.05 248.33 Q 203.05  248.33 204.2 247.65 Q 204.2  247.65 206.2 247.11 Q 206.2  247.11 208.1 246.6 Q 208.1  246.6 209.98 245.89 Q 209.98  245.89 212.39 244.76 Q 212.39  244.76 215.35 242.94 Q 215.35  242.94 218.59 240.26 Q 218.59  240.26 221.63 237.05 Q 221.63  237.05 223.9 233.89 Q 223.9  233.89 225.36 231.06 Q 225.36  231.06 226.26 228.54 Q 226.26  228.54 226.75 224.85 Q 226.75  224.85 226.95 218.04 Q 226.95  218.04 226.9 210.07 Q 226.9  210.07 226.59 204.84 Q 226.59  204.84 225.87 202.5 Q 225.87  202.5 224.54 201.01 Q 224.54  201.01 222.96 199.7 Q 222.96  199.7 221.83 198.78 Q 221.83  198.78 221.27 198.18 Q 221.27  198.18 221.04 197.68 Q 221.04  197.68 220.82 197.09 Q 220.82  197.09 220.28 196.32 Q 220.28  196.32 219.56 195.38 Q 219.56  195.38 219.1 194.39 Q 219.1  194.39 218.83 193.31 Q 218.83  193.31 218.28 192.04 Q 218.28  192.04 217.16 190.45 Q 217.16  190.45 215.35 188.41 Q 215.35  188.41 212.73 185.82 Q 212.73  185.82 209.22 182.55 Q 209.22  182.55 205.45 178.83 Q 205.45  178.83 202.55 175.14 Q 202.55  175.14 200.69 171.9 Q 200.69  171.9 199.18 169.46 Q 199.18  169.46 197.33 167.86 Q 197.33  167.86 194.58 166.87 Q 194.58  166.87 191.21 166.17 Q 191.21  166.17 188.25 165.43 Q 188.25  165.43 186.0 164.64 Q 186.0  164.64 184.02 164.16 Q 184.02  164.16 182.3 164.62 Q 182.3  164.62 181.3 166.81 Q 181.3  166.81 181.15 170.33 Q 181.15  170.33 181.63 173.58 Q 181.63  173.58 182.73 176.36 Q 182.73  176.36 184.65 180.02 Q 184.65  180.02 186.85 184.35 Q 186.85  184.35 187.93 187.42 Q 187.93  187.42 187.54 188.56 Q 187.54  188.56 186.57 188.62 Q 186.57  188.62 185.34 188.16 Q 185.34  188.16 183.43 187.21 Q 183.43  187.21 180.71 185.83 Q 180.71  185.83 177.52 184.11 Q 177.52  184.11 174.02 181.94 Q 174.02  181.94 170.11 178.84 Q 170.11  178.84 166.07 174.84 Q 166.07  174.84 162.72 170.62 Q 162.72  170.62 160.46 166.82 Q 160.46  166.82 159.1 163.92 Q 159.1  163.92 158.39 161.29 Q 158.39  161.29 158.1 156.78 Q 158.1  156.78 158.06 150.22 Q 158.06  150.22 158.26 144.62 Q 158.26  144.62 158.67 141.5 Q 158.67  141.5 159.16 139.63 Q 159.16  139.63 159.79 137.82 Q 159.79  137.82 160.9 135.3 Q 160.9  135.3 162.56 131.98 Q 162.56  131.98 164.32 128.85 Q 164.32  128.85 166.08 126.35 Q 166.08  126.35 168.37 123.73 Q 168.37  123.73 171.37 120.72 Q 171.37  120.72 174.42 118.06 Q 174.42  118.06 176.98 116.24 Q 176.98  116.24 178.9 115.11 Q 178.9  115.11 180.32 114.36 Q 180.32  114.36 181.92 113.66 Q 181.92  113.66 183.97 112.85 Q 183.97  112.85 185.86 112.24 Q 185.86  112.24 187.17 111.98 Q 187.17  111.98 188.2 111.78 Q 188.2  111.78 189.12 111.32 Q 189.12  111.32 189.75 110.47 Q 189.75  110.47 190.01 109.18 Q 190.01  109.18 190.21 107.53 Q 190.21  107.53 190.59 105.73 Q 190.59  105.73 191.08 104.11 Q 191.08  104.11 191.61 102.85 Q 191.61  102.85 192.28 101.65 Q 192.28  101.65 193.15 100.28 Q 193.15  100.28 194.13 98.81 Q 194.13  98.81 195.33 97.14 Q 195.33  97.14 197.49 94.65 Q 197.49  94.65 200.91 91.13 Q 200.91  91.13 204.29 87.9 Q 204.29  87.9 206.54 86.02 Q 206.54  86.02 208.13 84.91 Q 208.13  84.91 209.59 83.95 Q 209.59  83.95 210.92 83.11 Q 210.92  83.11 212.05 82.49 Q 212.05  82.49 213.06 81.97 Q 213.06  81.97 214.12 81.45 Q 214.12  81.45 215.58 80.8 Q 215.58  80.8 217.71 79.92 Q 217.71  79.92 220.59 78.8 Q 220.59  78.8 224.2 77.45 Q 224.2  77.45 228.48 75.98 Q 228.48  75.98 233.53 74.49 Q 233.53  74.49 240.0 73.0 " fill="rgb(253,253,253)"/> <path d="M 248.0 73.0 Q 248.0  73.0 239.49 74.19 Q 239.49  74.19 235.13 75.07 Q 235.13  75.07 231.56 76.01 Q 231.56  76.01 227.94 77.13 Q 227.94  77.13 224.17 78.45 Q 224.17  78.45 220.64 79.78 Q 220.64  79.78 217.75 80.91 Q 217.75  80.91 215.6 81.79 Q 215.6  81.79 214.14 82.44 Q 214.14  82.44 213.07 82.97 Q 213.07  82.97 212.06 83.48 Q 212.06  83.48 210.94 84.11 Q 210.94  84.11 209.61 84.94 Q 209.61  84.94 208.15 85.9 Q 208.15  85.9 206.58 86.99 Q 206.58  86.99 204.46 88.73 Q 204.46  88.73 201.41 91.63 Q 201.41  91.63 198.32 94.82 Q 198.32  94.82 196.31 97.15 Q 196.31  97.15 195.14 98.79 Q 195.14  98.79 194.16 100.27 Q 194.16  100.27 193.28 101.64 Q 193.28  101.64 192.62 102.82 Q 192.62  102.82 192.21 103.96 Q 192.21  103.96 192.01 105.3 Q 192.01  105.3 191.75 106.98 Q 191.75  106.98 191.12 109.06 Q 191.12  109.06 190.19 111.03 Q 190.19  111.03 189.15 112.27 Q 189.15  112.27 187.61 113.02 Q 187.61  113.02 185.11 113.81 Q 185.11  113.81 182.36 114.66 Q 182.36  114.66 180.39 115.37 Q 180.39  115.37 178.89 116.11 Q 178.89  116.11 176.98 117.24 Q 176.98  117.24 174.51 118.96 Q 174.51  118.96 171.75 121.34 Q 171.75  121.34 169.12 123.99 Q 169.12  123.99 167.02 126.41 Q 167.02  126.41 165.31 128.87 Q 165.31  128.87 163.55 132.0 Q 163.55  132.0 161.89 135.32 Q 161.89  135.32 160.79 137.83 Q 160.79  137.83 160.15 139.64 Q 160.15  139.64 159.66 141.51 Q 159.66  141.51 159.26 144.65 Q 159.26  144.65 159.05 150.28 Q 159.05  150.28 159.1 156.83 Q 159.1  156.83 159.4 161.32 Q 159.4  161.32 160.11 163.94 Q 160.11  163.94 161.47 166.85 Q 161.47  166.85 163.65 170.57 Q 163.65  170.57 166.74 174.51 Q 166.74  174.51 170.42 178.15 Q 170.42  178.15 174.11 181.02 Q 174.11  181.02 177.64 183.13 Q 177.64  183.13 181.1 184.84 Q 181.1  184.84 184.17 186.23 Q 184.17  186.23 186.29 187.17 Q 186.29  187.17 187.33 187.54 Q 187.33  187.54 187.53 187.23 Q 187.53  187.23 187.13 186.26 Q 187.13  186.26 186.36 184.73 Q 186.36  184.73 185.2 182.49 Q 185.2  182.49 183.45 179.2 Q 183.45  179.2 181.59 174.97 Q 181.59  174.97 180.67 170.28 Q 180.67  170.28 181.0 166.09 Q 181.0  166.09 182.25 163.68 Q 182.25  163.68 184.04 163.17 Q 184.04  163.17 186.03 163.64 Q 186.03  163.64 188.29 164.44 Q 188.29  164.44 191.25 165.18 Q 191.25  165.18 194.69 165.95 Q 194.69  165.95 197.67 167.19 Q 197.67  167.19 199.87 169.16 Q 199.87  169.16 201.63 171.86 Q 201.63  171.86 203.45 175.12 Q 203.45  175.12 205.88 178.57 Q 205.88  178.57 208.7 181.62 Q 208.7  181.62 210.75 183.46 Q 210.75  183.46 212.0 184.34 Q 212.0  184.34 213.68 185.76 Q 213.68  185.76 216.04 188.1 Q 216.04  188.1 218.08 190.37 Q 218.08  190.37 219.27 192.04 Q 219.27  192.04 219.83 193.31 Q 219.83  193.31 220.1 194.44 Q 220.1  194.44 220.56 195.67 Q 220.56  195.67 221.55 197.13 Q 221.55  197.13 223.19 198.83 Q 223.19  198.83 225.21 200.68 Q 225.21  200.68 226.81 202.46 Q 226.81  202.46 227.6 204.94 Q 227.6  204.94 227.9 210.29 Q 227.9  210.29 227.94 218.29 Q 227.94  218.29 227.74 225.01 Q 227.74  225.01 227.24 228.63 Q 227.24  228.63 226.32 231.15 Q 226.32  231.15 224.79 234.03 Q 224.79  234.03 222.28 237.41 Q 222.28  237.41 218.88 240.97 Q 218.88  240.97 215.35 243.91 Q 215.35  243.91 212.3 245.79 Q 212.3  245.79 209.91 246.92 Q 209.91  246.92 208.08 247.57 Q 208.08  247.57 206.37 247.89 Q 206.37  247.89 204.81 248.03 Q 204.81  248.03 204.39 248.24 Q 204.39  248.24 205.55 248.67 Q 205.55  248.67 207.47 249.35 Q 207.47  249.35 209.72 250.16 Q 209.72  250.16 213.02 250.76 Q 213.02  250.76 217.48 250.94 Q 217.48  250.94 221.57 250.78 Q 221.57  250.78 224.25 250.39 Q 224.25  250.39 225.94 249.9 Q 225.94  249.9 227.16 249.41 Q 227.16  249.41 228.18 248.91 Q 228.18  248.91 229.24 248.41 Q 229.24  248.41 230.58 247.92 Q 230.58  247.92 232.24 247.68 Q 232.24  247.68 233.68 248.58 Q 233.68  248.58 234.5 251.13 Q 234.5  251.13 234.86 254.68 Q 234.86  254.68 234.96 258.38 Q 234.96  258.38 234.8 261.49 Q 234.8  261.49 234.43 263.57 Q 234.43  263.57 233.95 264.97 Q 233.95  264.97 233.45 266.09 Q 233.45  266.09 232.95 267.09 Q 232.95  267.09 232.4 268.14 Q 232.4  268.14 231.58 269.46 Q 231.58  269.46 230.31 271.21 Q 230.31  271.21 228.53 273.32 Q 228.53  273.32 226.37 275.59 Q 226.37  275.59 224.23 277.59 Q 224.23  277.59 222.49 278.97 Q 222.49  278.97 221.12 279.86 Q 221.12  279.86 219.96 280.5 Q 219.96  280.5 218.8 281.01 Q 218.8  281.01 217.19 281.49 Q 217.19  281.49 213.95 281.84 Q 213.95  281.84 208.45 281.96 Q 208.45  281.96 202.85 281.83 Q 202.85  281.83 199.28 281.48 Q 199.28  281.48 197.2 281.01 Q 197.2  281.01 195.56 280.51 Q 195.56  280.51 194.05 280.02 Q 194.05  280.02 192.52 279.5 Q 192.52  279.5 190.75 278.87 Q 190.75  278.87 188.53 277.99 Q 188.53  277.99 185.69 276.75 Q 185.69  276.75 182.24 275.1 Q 182.24  275.1 178.74 273.29 Q 178.74  273.29 175.81 271.66 Q 175.81  271.66 173.51 270.27 Q 173.51  270.27 171.69 269.12 Q 171.69  269.12 170.15 268.1 Q 170.15  268.1 168.64 267.09 Q 168.64  267.09 167.03 265.97 Q 167.03  265.97 165.18 264.62 Q 165.18  264.62 162.98 262.92 Q 162.98  262.92 160.33 260.75 Q 160.33  260.75 157.29 258.08 Q 157.29  258.08 154.0 254.95 Q 154.0  254.95 150.67 251.54 Q 150.67  251.54 147.52 248.04 Q 147.52  248.04 144.51 244.33 Q 144.51  244.33 141.56 240.27 Q 141.56  240.27 138.92 236.32 Q 138.92  236.32 136.89 233.1 Q 136.89  233.1 135.3 230.37 Q 135.3  230.37 133.82 227.58 Q 133.82  227.58 132.43 224.75 Q 132.43  224.75 131.24 222.04 Q 131.24  222.04 130.11 219.09 Q 130.11  219.09 128.83 215.43 Q 128.83  215.43 127.58 211.64 Q 127.58  211.64 126.7 208.69 Q 126.7  208.69 126.13 206.51 Q 126.13  206.51 125.64 204.51 Q 125.64  204.51 125.24 202.42 Q 125.24  202.42 125.04 200.24 Q 125.04  200.24 125.0 199.08 Q 125.0  199.08 125.01 200.42 Q 125.01  200.42 125.1 203.73 Q 125.1  203.73 125.4 207.38 Q 125.4  207.38 125.85 210.62 Q 125.85  210.62 126.34 213.23 Q 126.34  213.23 126.84 215.36 Q 126.84  215.36 127.36 217.4 Q 127.36  217.4 128.12 220.1 Q 128.12  220.1 129.46 224.31 Q 129.46  224.31 131.12 229.26 Q 131.12  229.26 132.54 233.24 Q 132.54  233.24 133.64 236.0 Q 133.64  236.0 134.64 238.22 Q 134.64  238.22 135.71 240.42 Q 135.71  240.42 136.98 242.96 Q 136.98  242.96 138.42 245.75 Q 138.42  245.75 139.9 248.44 Q 139.9  248.44 141.31 250.82 Q 141.31  250.82 142.53 252.77 Q 142.53  252.77 143.58 254.37 Q 143.58  254.37 144.58 255.87 Q 144.58  255.87 145.73 257.51 Q 145.73  257.51 147.3 259.57 Q 147.3  259.57 150.13 262.83 Q 150.13  262.83 155.44 268.37 Q 155.44  268.37 162.13 275.05 Q 162.13  275.05 167.23 279.89 Q 167.23  279.89 170.4 282.48 Q 170.4  282.48 173.69 284.77 Q 173.69  284.77 178.18 287.62 Q 178.18  287.62 183.86 290.83 Q 183.86  290.83 189.74 293.83 Q 189.74  293.83 193.95 295.82 Q 193.95  295.82 196.2 296.73 Q 196.2  296.73 197.72 297.24 Q 197.72  297.24 199.34 297.74 Q 199.34  297.74 201.31 298.23 Q 201.31  298.23 203.65 298.73 Q 203.65  298.73 206.15 299.22 Q 206.15  299.22 209.24 299.66 Q 209.24  299.66 214.05 299.92 Q 214.05  299.92 220.09 299.94 Q 220.09  299.94 224.95 299.71 Q 224.95  299.71 227.79 299.29 Q 227.79  299.29 229.82 298.8 Q 229.82  298.8 231.75 298.3 Q 231.75  298.3 233.51 297.8 Q 233.51  297.8 235.19 297.19 Q 235.19  297.19 237.13 296.26 Q 237.13  296.26 239.34 295.14 Q 239.34  295.14 241.36 294.55 Q 241.36  294.55 242.56 294.96 Q 242.56  294.96 242.1 296.52 Q 242.1  296.52 239.91 298.92 Q 239.91  298.92 236.98 301.22 Q 236.98  301.22 234.1 302.88 Q 234.1  302.88 231.54 303.97 Q 231.54  303.97 229.33 304.65 Q 229.33  304.65 227.12 305.16 Q 227.12  305.16 224.73 305.61 Q 224.73  305.61 222.26 305.9 Q 222.26  305.9 220.08 305.99 Q 220.08  305.99 219.02 306.0 Q 219.02  306.0 219.29 306.04 Q 219.29  306.04 220.03 306.24 Q 220.03  306.24 220.83 306.6 Q 220.83  306.6 222.32 306.89 Q 222.32  306.89 224.59 307.03 Q 224.59  307.03 226.56 307.23 Q 226.56  307.23 227.73 307.59 Q 227.73  307.59 229.04 307.88 Q 229.04  307.88 231.13 307.95 Q 231.13  307.95 233.77 307.77 Q 233.77  307.77 236.56 307.39 Q 236.56  307.39 239.16 306.9 Q 239.16  306.9 241.37 306.4 Q 241.37  306.4 243.38 305.91 Q 243.38  305.91 245.33 305.41 Q 245.33  305.41 247.13 304.91 Q 247.13  304.91 248.81 304.38 Q 248.81  304.38 250.66 303.71 Q 250.66  303.71 253.2 302.67 Q 253.2  302.67 257.22 300.82 Q 257.22  300.82 262.94 297.98 Q 262.94  297.98 268.92 294.74 Q 268.92  294.74 273.88 291.7 Q 273.88  291.7 277.74 289.04 Q 277.74  289.04 280.81 286.69 Q 280.81  286.69 283.85 284.01 Q 283.85  284.01 287.25 280.77 Q 287.25  280.77 290.03 278.16 Q 290.03  278.16 291.59 276.94 Q 291.59  276.94 293.16 275.69 Q 293.16  275.69 295.92 273.03 Q 295.92  273.03 299.77 269.05 Q 299.77  269.05 304.16 264.29 Q 304.16  264.29 307.99 259.98 Q 307.99  259.98 310.44 257.04 Q 310.44  257.04 312.05 254.93 Q 312.05  254.93 313.59 252.85 Q 313.59  252.85 315.38 250.27 Q 315.38  250.27 317.49 247.1 Q 317.49  247.1 319.35 244.82 Q 319.35  244.82 320.35 244.75 Q 320.35  244.75 320.5 246.16 Q 320.5  246.16 319.91 248.32 Q 319.91  248.32 318.7 252.55 Q 318.7  252.55 317.07 259.77 Q 317.07  259.77 315.54 266.97 Q 315.54  266.97 314.57 271.08 Q 314.57  271.08 313.87 273.24 Q 313.87  273.24 313.05 275.36 Q 313.05  275.36 312.21 277.39 Q 312.21  277.39 311.56 278.86 Q 311.56  278.86 311.04 279.93 Q 311.04  279.93 310.52 280.93 Q 310.52  280.93 309.9 282.06 Q 309.9  282.06 309.07 283.38 Q 309.07  283.38 308.1 284.85 Q 308.1  284.85 307.08 286.37 Q 307.08  286.37 305.84 288.1 Q 305.84  288.1 304.0 290.42 Q 304.0  290.42 300.49 294.31 Q 300.49  294.31 294.44 300.52 Q 294.44  300.52 287.95 306.91 Q 287.95  306.91 283.71 310.83 Q 283.71  310.83 281.32 312.76 Q 281.32  312.76 279.27 314.29 Q 279.27  314.29 276.71 316.12 Q 276.71  316.12 273.17 318.53 Q 273.17  318.53 269.21 321.07 Q 269.21  321.07 265.64 323.13 Q 265.64  323.13 262.11 324.94 Q 262.11  324.94 257.94 327.03 Q 257.94  327.03 253.66 329.11 Q 253.66  329.11 250.26 330.66 Q 250.26  330.66 247.8 331.66 Q 247.8  331.66 245.93 332.34 Q 245.93  332.34 244.36 332.88 Q 244.36  332.88 242.84 333.39 Q 242.84  333.39 240.94 333.98 Q 240.94  333.98 238.26 334.77 Q 238.26  334.77 235.15 335.62 Q 235.15  335.62 232.27 336.32 Q 232.27  336.32 229.71 336.86 Q 229.71  336.86 227.2 337.36 Q 227.2  337.36 224.43 337.85 Q 224.43  337.85 220.96 338.34 Q 220.96  338.34 215.63 338.74 Q 215.63  338.74 207.15 338.95 Q 207.15  338.95 197.54 338.9 Q 197.54  338.9 190.5 338.62 Q 190.5  338.62 186.39 338.17 Q 186.39  338.17 183.46 337.67 Q 183.46  337.67 180.88 337.18 Q 180.88  337.18 178.38 336.67 Q 178.38  336.67 175.73 336.09 Q 175.73  336.09 172.72 335.32 Q 172.72  335.32 169.68 334.47 Q 169.68  334.47 167.28 333.74 Q 167.28  333.74 165.16 333.02 Q 165.16  333.02 162.29 331.97 Q 162.29  331.97 158.11 330.27 Q 158.11  330.27 152.58 327.73 Q 152.58  327.73 146.67 324.79 Q 146.67  324.79 142.12 322.39 Q 142.12  322.39 139.26 320.74 Q 139.26  320.74 137.29 319.5 Q 137.29  319.5 135.68 318.45 Q 135.68  318.45 134.18 317.45 Q 134.18  317.45 132.62 316.39 Q 132.62  316.39 130.87 315.13 Q 130.87  315.13 128.8 313.56 Q 128.8  313.56 126.29 311.55 Q 126.29  311.55 122.96 308.64 Q 122.96  308.64 118.26 304.19 Q 118.26  304.19 112.81 298.74 Q 112.81  298.74 108.36 294.04 Q 108.36  294.04 105.45 290.71 Q 105.45  290.71 103.43 288.18 Q 103.43  288.18 101.6 285.74 Q 101.6  285.74 99.39 282.55 Q 99.39  282.55 96.82 278.69 Q 96.82  278.69 94.56 275.18 Q 94.56  275.18 92.66 271.97 Q 92.66  271.97 90.46 267.85 Q 90.46  267.85 87.95 262.83 Q 87.95  262.83 85.91 258.52 Q 85.91  258.52 84.6 255.44 Q 84.6  255.44 83.59 252.69 Q 83.59  252.69 82.54 249.62 Q 82.54  249.62 81.33 245.98 Q 81.33  245.98 80.03 242.03 Q 80.03  242.03 78.99 238.69 Q 78.99  238.69 78.32 236.28 Q 78.32  236.28 77.82 234.27 Q 77.82  234.27 77.32 232.18 Q 77.32  232.18 76.82 229.76 Q 76.82  229.76 76.33 226.9 Q 76.33  226.9 75.83 223.72 Q 75.83  223.72 75.33 219.99 Q 75.33  219.99 74.84 215.05 Q 74.84  215.05 74.39 209.12 Q 74.39  209.12 74.1 203.87 Q 74.1  203.87 74.05 199.78 Q 74.05  199.78 74.25 195.11 Q 74.25  195.11 74.65 189.27 Q 74.65  189.27 75.14 184.0 Q 75.14  184.0 75.64 180.24 Q 75.64  180.24 76.13 177.19 Q 76.13  177.19 76.71 173.96 Q 76.71  173.96 77.6 169.81 Q 77.6  169.81 78.89 164.58 Q 78.89  164.58 80.36 159.26 Q 80.36  159.26 81.81 154.63 Q 81.81  154.63 83.11 150.9 Q 83.11  150.9 84.29 147.84 Q 84.29  147.84 85.66 144.57 Q 85.66  144.57 87.47 140.53 Q 87.47  140.53 89.62 136.1 Q 89.62  136.1 92.1 131.53 Q 92.1  131.53 95.11 126.52 Q 95.11  126.52 98.61 121.13 Q 98.61  121.13 101.83 116.46 Q 101.83  116.46 104.35 113.11 Q 104.35  113.11 106.73 110.19 Q 106.73  110.19 109.45 107.01 Q 109.45  107.01 112.23 103.91 Q 112.23  103.91 114.92 101.12 Q 114.92  101.12 117.93 98.27 Q 117.93  98.27 121.45 95.13 Q 121.45  95.13 124.87 92.19 Q 124.87  92.19 127.7 89.85 Q 127.7  89.85 130.06 87.99 Q 130.06  87.99 132.15 86.4 Q 132.15  86.4 133.99 85.06 Q 133.99  85.06 135.66 83.91 Q 135.66  83.91 137.48 82.74 Q 137.48  82.74 139.7 81.41 Q 139.7  81.41 142.15 80.09 Q 142.15  80.09 144.56 78.99 Q 144.56  78.99 146.58 78.13 Q 146.58  78.13 147.89 77.55 Q 147.89  77.55 148.33 77.33 Q 148.33  77.33 147.87 77.55 Q 147.87  77.55 146.81 78.01 Q 146.81  78.01 145.5 78.51 Q 145.5  78.51 144.33 79.0 Q 144.33  79.0 143.42 79.54 Q 143.42  79.54 142.02 80.33 Q 142.02  80.33 139.42 81.54 Q 139.42  81.54 136.08 83.13 Q 136.08  83.13 132.56 85.0 Q 132.56  85.0 128.81 87.24 Q 128.81  87.24 124.74 89.86 Q 124.74  89.86 121.0 92.39 Q 121.0  92.39 118.22 94.36 Q 118.22  94.36 115.98 96.06 Q 115.98  96.06 113.53 98.0 Q 113.53  98.0 110.16 100.88 Q 110.16  100.88 105.38 105.19 Q 105.38  105.19 100.13 110.21 Q 100.13  110.21 95.56 114.94 Q 95.56  114.94 91.99 118.96 Q 91.99  118.96 89.35 122.09 Q 89.35  122.09 87.38 124.56 Q 87.38  124.56 85.68 126.79 Q 85.68  126.79 83.79 129.41 Q 83.79  129.41 81.37 132.97 Q 81.37  132.97 78.84 136.81 Q 78.84  136.81 76.78 140.1 Q 76.78  140.1 74.72 143.77 Q 74.72  143.77 72.01 149.02 Q 72.01  149.02 69.24 154.64 Q 69.24  154.64 67.35 158.74 Q 67.35  158.74 66.19 161.53 Q 66.19  161.53 65.18 164.06 Q 65.18  164.06 64.08 166.98 Q 64.08  166.98 62.78 170.74 Q 62.78  170.74 61.32 175.38 Q 61.32  175.38 59.85 180.72 Q 59.85  180.72 58.58 185.93 Q 58.58  185.93 57.7 190.05 Q 57.7  190.05 57.12 193.27 Q 57.12  193.27 56.63 196.28 Q 56.63  196.28 56.13 199.67 Q 56.13  199.67 55.64 203.93 Q 55.64  203.93 55.24 209.72 Q 55.24  209.72 55.05 217.58 Q 55.05  217.58 55.11 226.1 Q 55.11  226.1 55.4 233.07 Q 55.4  233.07 55.85 238.19 Q 55.85  238.19 56.35 242.28 Q 56.35  242.28 56.84 245.7 Q 56.84  245.7 57.35 248.65 Q 57.35  248.65 58.03 251.87 Q 58.03  251.87 59.1 256.35 Q 59.1  256.35 60.59 261.96 Q 60.59  261.96 62.35 267.88 Q 62.35  267.88 64.11 273.23 Q 64.11  273.23 65.54 277.24 Q 65.54  277.24 66.72 280.16 Q 66.72  280.16 68.0 282.95 Q 68.0  282.95 69.61 286.21 Q 69.61  286.21 71.63 290.26 Q 71.63  290.26 73.84 294.6 Q 73.84  294.6 75.79 298.22 Q 75.79  298.22 77.63 301.3 Q 77.63  301.3 79.92 304.84 Q 79.92  304.84 82.49 308.69 Q 82.49  308.69 84.67 311.83 Q 84.67  311.83 86.34 314.12 Q 86.34  314.12 87.84 316.12 Q 87.84  316.12 89.56 318.33 Q 89.56  318.33 91.83 321.1 Q 91.83  321.1 94.84 324.53 Q 94.84  324.53 98.57 328.5 Q 98.57  328.5 102.71 332.63 Q 102.71  332.63 106.66 336.33 Q 106.66  336.33 110.13 339.37 Q 110.13  339.37 113.12 341.86 Q 113.12  341.86 115.87 344.05 Q 115.87  344.05 118.85 346.29 Q 118.85  346.29 122.25 348.7 Q 122.25  348.7 125.96 351.18 Q 125.96  351.18 129.74 353.53 Q 129.74  353.53 133.24 355.54 Q 133.24  355.54 136.73 357.36 Q 136.73  357.36 141.13 359.56 Q 141.13  359.56 146.22 362.08 Q 146.22  362.08 150.52 364.11 Q 150.52  364.11 153.59 365.41 Q 153.59  365.41 156.34 366.42 Q 156.34  366.42 159.41 367.47 Q 159.41  367.47 163.06 368.69 Q 163.06  368.69 167.02 369.99 Q 167.02  369.99 170.35 371.02 Q 170.35  371.02 172.8 371.68 Q 172.8  371.68 175.03 372.19 Q 175.03  372.19 177.43 372.68 Q 177.43  372.68 179.91 373.18 Q 179.91  373.18 182.44 373.68 Q 182.44  373.68 185.14 374.17 Q 185.14  374.17 188.23 374.67 Q 188.23  374.67 192.07 375.17 Q 192.07  375.17 197.3 375.62 Q 197.3  375.62 204.96 375.9 Q 204.96  375.9 214.54 375.95 Q 214.54  375.95 222.96 375.75 Q 222.96  375.75 228.61 375.34 Q 228.61  375.34 232.57 374.85 Q 232.57  374.85 235.79 374.36 Q 235.79  374.36 238.59 373.86 Q 238.59  373.86 241.17 373.36 Q 241.17  373.36 243.66 372.87 Q 243.66  372.87 246.11 372.37 Q 246.11  372.37 248.39 371.87 Q 248.39  371.87 250.56 371.34 Q 250.56  371.34 252.94 370.65 Q 252.94  370.65 255.83 369.72 Q 255.83  369.72 259.36 368.55 Q 259.36  368.55 263.36 367.2 Q 263.36  367.2 267.05 365.91 Q 267.05  365.91 270.44 364.55 Q 270.44  364.55 275.35 362.26 Q 275.35  362.26 282.39 358.78 Q 282.39  358.78 288.83 355.48 Q 288.83  355.48 292.72 353.34 Q 292.72  353.34 295.0 351.96 Q 295.0  351.96 296.85 350.75 Q 296.85  350.75 299.07 349.22 Q 299.07  349.22 302.01 347.12 Q 302.01  347.12 305.09 344.85 Q 305.09  344.85 307.84 342.71 Q 307.84  342.71 310.52 340.54 Q 310.52  340.54 313.49 338.04 Q 313.49  338.04 317.13 334.73 Q 317.13  334.73 321.51 330.45 Q 321.51  330.45 325.92 325.89 Q 325.92  325.89 329.67 321.77 Q 329.67  321.77 332.54 318.41 Q 332.54  318.41 334.58 315.86 Q 334.58  315.86 336.29 313.49 Q 336.29  313.49 338.2 310.7 Q 338.2  310.7 340.48 307.28 Q 340.48  307.28 343.12 303.29 Q 343.12  303.29 345.6 299.33 Q 345.6  299.33 347.57 295.8 Q 347.57  295.8 349.57 291.86 Q 349.57  291.86 352.04 286.9 Q 352.04  286.9 354.37 282.1 Q 354.37  282.1 355.97 278.47 Q 355.97  278.47 357.34 274.82 Q 357.34  274.82 358.99 269.98 Q 358.99  269.98 360.65 264.89 Q 360.65  264.89 361.9 260.73 Q 361.9  260.73 362.65 257.57 Q 362.65  257.57 362.97 255.19 Q 362.97  255.19 363.16 253.55 Q 363.16  253.55 363.5 252.58 Q 363.5  252.58 363.97 251.87 Q 363.97  251.87 364.49 251.29 Q 364.49  251.29 365.12 252.33 Q 365.12  252.33 365.92 256.34 Q 365.92  256.34 366.62 261.89 Q 366.62  261.89 366.93 266.87 Q 366.93  266.87 366.86 270.42 Q 366.86  270.42 366.54 272.36 Q 366.54  272.36 366.2 274.22 Q 366.2  274.22 366.01 277.61 Q 366.01  277.61 365.86 281.7 Q 365.86  281.7 365.53 285.01 Q 365.53  285.01 365.07 287.53 Q 365.07  287.53 364.56 289.68 Q 364.56  289.68 363.94 291.7 Q 363.94  291.7 363.14 293.67 Q 363.14  293.67 362.29 295.54 Q 362.29  295.54 361.64 297.15 Q 361.64  297.15 361.34 298.1 Q 361.34  298.1 361.5 298.0 Q 361.5  298.0 362.15 297.07 Q 362.15  297.07 363.27 295.75 Q 363.27  295.75 364.69 294.19 Q 364.69  294.19 366.17 292.4 Q 366.17  292.4 367.55 290.55 Q 367.55  290.55 368.76 288.83 Q 368.76  288.83 370.0 286.77 Q 370.0  286.77 371.59 283.76 Q 371.59  283.76 373.4 279.98 Q 373.4  279.98 375.07 276.02 Q 375.07  276.02 376.5 272.15 Q 376.5  272.15 377.68 268.5 Q 377.68  268.5 378.62 265.28 Q 378.62  265.28 379.32 262.69 Q 379.32  262.69 379.86 260.58 Q 379.86  260.58 380.35 258.58 Q 380.35  258.58 380.85 256.5 Q 380.85  256.5 381.35 254.21 Q 381.35  254.21 381.84 251.59 Q 381.84  251.59 382.34 248.5 Q 382.34  248.5 382.84 244.66 Q 382.84  244.66 383.33 239.71 Q 383.33  239.71 383.83 233.11 Q 383.83  233.11 384.33 224.49 Q 384.33  224.49 384.91 216.32 Q 384.91  216.32 385.7 212.65 Q 385.7  212.65 386.81 213.29 Q 386.81  213.29 388.34 215.23 Q 388.34  215.23 390.06 216.97 Q 390.06  216.97 391.48 218.12 Q 391.48  218.12 392.34 218.54 Q 392.34  218.54 392.52 218.23 Q 392.52  218.23 392.12 217.32 Q 392.12  217.32 391.36 216.07 Q 391.36  216.07 390.51 214.64 Q 390.51  214.64 389.78 213.15 Q 389.78  213.15 389.22 211.66 Q 389.22  211.66 388.72 210.16 Q 388.72  210.16 388.15 208.37 Q 388.15  208.37 387.4 205.86 Q 387.4  205.86 386.54 202.78 Q 386.54  202.78 385.81 199.81 Q 385.81  199.81 385.32 197.06 Q 385.32  197.06 385.07 194.07 Q 385.07  194.07 384.93 190.8 Q 384.93  190.8 384.68 187.56 Q 384.68  187.56 384.11 184.12 Q 384.11  184.12 383.13 179.68 Q 383.13  179.68 381.91 174.72 Q 381.91  174.72 380.91 170.96 Q 380.91  170.96 380.21 168.7 Q 380.21  168.7 379.47 166.71 Q 379.47  166.71 378.55 164.43 Q 378.55  164.43 377.55 162.19 Q 377.55  162.19 376.44 160.01 Q 376.44  160.01 374.99 157.56 Q 374.99  157.56 373.33 154.97 Q 373.33  154.97 372.05 152.92 Q 372.05  152.92 371.54 151.73 Q 371.54  151.73 371.94 151.17 Q 371.94  151.17 373.05 151.01 Q 373.05  151.01 374.3 151.0 Q 374.3  151.0 375.21 150.84 Q 375.21  150.84 375.54 150.17 Q 375.54  150.17 375.3 148.88 Q 375.3  148.88 374.82 147.19 Q 374.82  147.19 374.32 145.34 Q 374.32  145.34 373.83 143.57 Q 373.83  143.57 373.23 141.75 Q 373.23  141.75 372.31 139.19 Q 372.31  139.19 371.05 135.86 Q 371.05  135.86 369.78 132.76 Q 369.78  132.76 368.65 130.31 Q 368.65  130.31 367.44 127.88 Q 367.44  127.88 365.91 124.96 Q 365.91  124.96 363.82 121.38 Q 363.82  121.38 361.21 117.38 Q 361.21  117.38 358.66 113.73 Q 358.66  113.73 356.35 110.77 Q 356.35  110.77 353.75 107.86 Q 353.75  107.86 350.66 104.71 Q 350.66  104.71 347.6 101.84 Q 347.6  101.84 344.99 99.62 Q 344.99  99.62 342.87 97.99 Q 342.87  97.99 340.87 96.68 Q 340.87  96.68 337.85 95.1 Q 337.85  95.1 333.54 93.05 Q 333.54  93.05 329.65 91.15 Q 329.65  91.15 327.32 89.83 Q 327.32  89.83 325.93 88.81 Q 325.93  88.81 324.96 87.81 Q 324.96  87.81 324.68 86.82 Q 324.68  86.82 325.25 85.83 Q 325.25  85.83 326.38 84.83 Q 326.38  84.83 327.75 83.84 Q 327.75  83.84 329.23 82.85 Q 329.23  82.85 330.72 81.89 Q 330.72  81.89 332.21 81.07 Q 332.21  81.07 333.76 80.36 Q 333.76  80.36 335.59 79.34 Q 335.59  79.34 337.76 77.81 Q 337.76  77.81 339.88 76.37 Q 339.88  76.37 341.35 75.52 Q 341.35  75.52 341.23 75.14 Q 341.23  75.14 339.19 75.04 Q 339.19  75.04 336.84 75.19 Q 336.84  75.19 335.38 75.55 Q 335.38  75.55 333.67 76.03 Q 333.67  76.03 330.56 76.53 Q 330.56  76.53 326.24 77.03 Q 326.24  77.03 320.77 77.5 Q 320.77  77.5 312.76 77.84 Q 312.76  77.84 301.59 77.91 Q 301.59  77.91 290.57 77.48 Q 290.57  77.48 282.76 76.44 Q 282.76  76.44 277.26 75.23 Q 277.26  75.23 271.62 74.21 Q 271.62  74.21 261.0 73.0 " fill="rgb(7,7,7)"/> <path d="M 208.0 106.0 Q 208.0  106.0 208.6 108.91 Q 208.6  108.91 208.27 110.18 Q 208.27  110.18 208.06 111.38 Q 208.06  111.38 208.14 112.67 Q 208.14  112.67 208.49 113.84 Q 208.49  113.84 209.28 115.06 Q 209.28  115.06 210.67 116.63 Q 210.67  116.63 212.5 118.39 Q 212.5  118.39 214.43 120.02 Q 214.43  120.02 216.27 121.43 Q 216.27  121.43 217.93 122.6 Q 217.93  122.6 219.43 123.62 Q 219.43  123.62 220.89 124.58 Q 220.89  124.58 222.34 125.4 Q 222.34  125.4 223.8 125.86 Q 223.8  125.86 225.52 125.79 Q 225.52  125.79 227.92 125.08 Q 227.92  125.08 230.79 124.08 Q 230.79  124.08 233.26 123.54 Q 233.26  123.54 234.93 123.76 Q 234.93  123.76 235.98 124.44 Q 235.98  124.44 236.64 125.41 Q 236.64  125.41 237.14 126.77 Q 237.14  126.77 237.62 128.43 Q 237.62  128.43 238.11 129.98 Q 238.11  129.98 238.66 131.19 Q 238.66  131.19 239.49 132.36 Q 239.49  132.36 240.68 133.64 Q 240.68  133.64 241.94 134.75 Q 241.94  134.75 243.04 135.49 Q 243.04  135.49 244.03 136.01 Q 244.03  136.01 245.03 136.5 Q 245.03  136.5 246.28 136.98 Q 246.28  136.98 247.9 137.45 Q 247.9  137.45 249.66 137.81 Q 249.66  137.81 251.29 137.96 Q 251.29  137.96 252.88 137.87 Q 252.88  137.87 254.63 137.56 Q 254.63  137.56 256.43 137.11 Q 256.43  137.11 258.06 136.63 Q 258.06  136.63 259.46 136.14 Q 259.46  136.14 260.64 135.64 Q 260.64  135.64 261.83 134.9 Q 261.83  134.9 263.33 133.61 Q 263.33  133.61 264.92 131.99 Q 264.92  131.99 266.09 130.54 Q 266.09  130.54 266.75 128.89 Q 266.75  128.89 267.25 126.0 Q 267.25  126.0 267.86 122.39 Q 267.86  122.39 268.8 120.11 Q 268.8  120.11 269.99 119.81 Q 269.99  119.81 271.0 120.46 Q 271.0  120.46 271.65 121.34 Q 271.65  121.34 272.15 122.31 Q 272.15  122.31 272.59 123.57 Q 272.59  123.57 272.89 125.87 Q 272.89  125.87 272.95 129.25 Q 272.95  129.25 272.79 132.29 Q 272.79  132.29 272.41 134.05 Q 272.41  134.05 271.94 135.11 Q 271.94  135.11 271.38 136.13 Q 271.38  136.13 270.44 137.41 Q 270.44  137.41 268.86 139.06 Q 268.86  139.06 266.7 140.81 Q 266.7  140.81 264.12 142.37 Q 264.12  142.37 261.52 143.59 Q 261.52  143.59 259.2 144.38 Q 259.2  144.38 256.6 144.8 Q 256.6  144.8 253.12 144.95 Q 253.12  144.95 249.15 144.88 Q 249.15  144.88 245.42 144.58 Q 245.42  144.58 242.25 144.13 Q 242.25  144.13 239.73 143.64 Q 239.73  143.64 237.66 143.07 Q 237.66  143.07 235.72 142.32 Q 235.72  142.32 233.87 141.56 Q 233.87  141.56 232.2 141.12 Q 232.2  141.12 230.76 140.93 Q 230.76  140.93 229.56 140.68 Q 229.56  140.68 228.79 140.39 Q 228.79  140.39 228.76 140.38 Q 228.76  140.38 229.44 140.78 Q 229.44  140.78 230.39 141.48 Q 230.39  141.48 231.36 142.31 Q 231.36  142.31 232.33 143.07 Q 232.33  143.07 233.43 143.69 Q 233.43  143.69 234.99 144.37 Q 234.99  144.37 237.03 145.2 Q 237.03  145.2 239.06 145.98 Q 239.06  145.98 240.76 146.57 Q 240.76  146.57 242.41 147.07 Q 242.41  147.07 244.23 147.53 Q 244.23  147.53 246.15 147.85 Q 246.15  147.85 248.11 148.01 Q 248.11  148.01 250.19 148.17 Q 250.19  148.17 252.44 148.55 Q 252.44  148.55 254.57 149.28 Q 254.57  149.28 256.29 150.41 Q 256.29  150.41 257.55 151.69 Q 257.55  151.69 258.33 152.81 Q 258.33  152.81 258.53 153.7 Q 258.53  153.7 257.95 154.34 Q 257.95  154.34 255.65 154.65 Q 255.65  154.65 250.61 154.57 Q 250.61  154.57 244.02 154.46 Q 244.02  154.46 237.99 154.8 Q 237.99  154.8 233.19 155.46 Q 233.19  155.46 229.41 155.87 Q 229.41  155.87 226.21 155.67 Q 226.21  155.67 223.06 154.67 Q 223.06  154.67 220.0 153.19 Q 220.0  153.19 217.56 151.98 Q 217.56  151.98 215.47 151.22 Q 215.47  151.22 212.63 150.5 Q 212.63  150.5 208.74 149.72 Q 208.74  149.72 204.42 149.19 Q 204.42  149.19 200.25 149.16 Q 200.25  149.16 196.69 149.75 Q 196.69  149.75 193.93 150.79 Q 193.93  150.79 191.66 151.65 Q 191.66  151.65 189.69 151.93 Q 189.69  151.93 188.09 151.79 Q 188.09  151.79 186.86 151.36 Q 186.86  151.36 185.71 150.56 Q 185.71  150.56 184.4 149.41 Q 184.4  149.41 183.12 148.3 Q 183.12  148.3 182.01 147.56 Q 182.01  147.56 181.03 147.17 Q 181.03  147.17 180.06 147.04 Q 180.06  147.04 179.09 147.15 Q 179.09  147.15 178.09 147.51 Q 178.09  147.51 176.89 148.32 Q 176.89  148.32 175.33 149.73 Q 175.33  149.73 173.78 151.45 Q 173.78  151.45 172.74 152.96 Q 172.74  152.96 172.14 152.99 Q 172.14  152.99 171.67 150.2 Q 171.67  150.2 171.36 145.79 Q 171.36  145.79 171.42 142.18 Q 171.42  142.18 171.8 139.9 Q 171.8  139.9 172.28 138.22 Q 172.28  138.22 172.77 136.78 Q 172.77  136.78 173.25 135.56 Q 173.25  135.56 173.8 134.46 Q 173.8  134.46 174.53 133.26 Q 174.53  133.26 175.65 131.71 Q 175.65  131.71 177.49 129.6 Q 177.49  129.6 180.16 127.05 Q 180.16  127.05 183.46 124.57 Q 183.46  124.57 187.28 122.49 Q 187.28  122.49 191.71 120.73 Q 191.71  120.73 196.4 119.26 Q 196.4  119.26 200.07 118.15 Q 200.07  118.15 202.01 117.38 Q 202.01  117.38 202.93 116.54 Q 202.93  116.54 203.59 115.29 Q 203.59  115.29 204.4 113.63 Q 204.4  113.63 205.45 111.45 Q 205.45  111.45 206.0 108.0 " fill="rgb(7,7,7)"/> <path d="M 208.0 107.0 Q 208.0  107.0 206.57 111.82 Q 206.57  111.82 205.25 114.93 Q 205.25  114.93 204.12 116.74 Q 204.12  116.74 203.13 117.74 Q 203.13  117.74 202.04 118.41 Q 202.04  118.41 200.07 119.15 Q 200.07  119.15 196.4 120.26 Q 196.4  120.26 191.71 121.73 Q 191.71  121.73 187.29 123.49 Q 187.29  123.49 183.56 125.47 Q 183.56  125.47 180.53 127.67 Q 180.53  127.67 178.21 129.88 Q 178.21  129.88 176.59 131.77 Q 176.59  131.77 175.52 133.26 Q 175.52  133.26 174.8 134.46 Q 174.8  134.46 174.25 135.56 Q 174.25  135.56 173.77 136.78 Q 173.77  136.78 173.28 138.22 Q 173.28  138.22 172.8 139.9 Q 172.8  139.9 172.37 142.12 Q 172.37  142.12 172.1 145.52 Q 172.1  145.52 172.01 149.64 Q 172.01  149.64 172.0 152.34 Q 172.0  152.34 172.2 152.52 Q 172.2  152.52 173.13 151.11 Q 173.13  151.11 174.91 149.15 Q 174.91  149.15 176.76 147.45 Q 176.76  147.45 178.08 146.53 Q 178.08  146.53 179.09 146.15 Q 179.09  146.15 180.06 146.04 Q 180.06  146.04 181.03 146.17 Q 181.03  146.17 182.01 146.56 Q 182.01  146.56 183.12 147.3 Q 183.12  147.3 184.4 148.41 Q 184.4  148.41 185.71 149.56 Q 185.71  149.56 186.86 150.36 Q 186.86  150.36 188.09 150.79 Q 188.09  150.79 189.69 150.93 Q 189.69  150.93 191.66 150.65 Q 191.66  150.65 193.93 149.79 Q 193.93  149.79 196.69 148.75 Q 196.69  148.75 200.25 148.16 Q 200.25  148.16 204.42 148.19 Q 204.42  148.19 208.74 148.72 Q 208.74  148.72 212.63 149.5 Q 212.63  149.5 215.47 150.22 Q 215.47  150.22 217.56 150.98 Q 217.56  150.98 220.0 152.19 Q 220.0  152.19 223.06 153.67 Q 223.06  153.67 226.21 154.67 Q 226.21  154.67 229.41 154.87 Q 229.41  154.87 233.19 154.46 Q 233.19  154.46 237.94 153.75 Q 237.94  153.75 243.77 153.2 Q 243.77  153.2 250.01 153.06 Q 250.01  153.06 254.76 153.23 Q 254.76  153.23 256.96 153.5 Q 256.96  153.5 257.53 153.44 Q 257.53  153.44 257.36 152.82 Q 257.36  152.82 256.75 151.89 Q 256.75  151.89 255.85 150.97 Q 255.85  150.97 254.59 150.31 Q 254.59  150.31 252.9 150.02 Q 252.9  150.02 250.86 149.84 Q 250.86  149.84 248.6 149.5 Q 248.6  149.5 246.34 149.04 Q 246.34  149.04 244.26 148.55 Q 244.26  148.55 242.41 148.07 Q 242.41  148.07 240.76 147.57 Q 240.76  147.57 239.06 146.98 Q 239.06  146.98 237.03 146.2 Q 237.03  146.2 234.99 145.37 Q 234.99  145.37 233.42 144.69 Q 233.42  144.69 232.23 144.07 Q 232.23  144.07 230.99 143.31 Q 230.99  143.31 229.67 142.39 Q 229.67  142.39 228.5 141.43 Q 228.5  141.43 227.84 140.61 Q 227.84  140.61 228.11 140.14 Q 228.11  140.14 229.24 140.01 Q 229.24  140.01 230.68 140.0 Q 230.68  140.0 232.19 140.12 Q 232.19  140.12 233.87 140.56 Q 233.87  140.56 235.72 141.32 Q 235.72  141.32 237.66 142.07 Q 237.66  142.07 239.73 142.64 Q 239.73  142.64 242.25 143.13 Q 242.25  143.13 245.42 143.58 Q 245.42  143.58 249.15 143.88 Q 249.15  143.88 253.12 143.95 Q 253.12  143.95 256.6 143.8 Q 256.6  143.8 259.2 143.38 Q 259.2  143.38 261.52 142.59 Q 261.52  142.59 264.1 141.4 Q 264.1  141.4 266.53 139.98 Q 266.53  139.98 268.37 138.55 Q 268.37  138.55 269.62 137.23 Q 269.62  137.23 270.41 136.11 Q 270.41  136.11 270.94 135.11 Q 270.94  135.11 271.41 134.05 Q 271.41  134.05 271.79 132.29 Q 271.79  132.29 271.94 129.23 Q 271.94  129.23 271.77 125.64 Q 271.77  125.64 271.19 122.79 Q 271.19  122.79 270.3 121.01 Q 270.3  121.01 269.35 120.25 Q 269.35  120.25 268.55 120.82 Q 268.55  120.82 268.11 123.2 Q 268.11  123.2 267.92 126.52 Q 267.92  126.52 267.65 129.1 Q 267.65  129.1 266.96 130.71 Q 266.96  130.71 265.52 132.41 Q 265.52  132.41 263.56 134.37 Q 263.56  134.37 261.83 135.88 Q 261.83  135.88 260.58 136.67 Q 260.58  136.67 259.38 137.18 Q 259.38  137.18 257.96 137.66 Q 257.96  137.66 256.32 138.14 Q 256.32  138.14 254.52 138.59 Q 254.52  138.59 252.78 138.88 Q 252.78  138.88 251.18 138.95 Q 251.18  138.95 249.54 138.79 Q 249.54  138.79 247.78 138.42 Q 247.78  138.42 246.18 137.95 Q 246.18  137.95 244.96 137.47 Q 244.96  137.47 243.96 136.98 Q 243.96  136.98 242.95 136.43 Q 242.95  136.43 241.7 135.53 Q 241.7  135.53 240.12 134.07 Q 240.12  134.07 238.61 132.47 Q 238.61  132.47 237.65 131.18 Q 237.65  131.18 237.08 130.15 Q 237.08  130.15 236.6 129.18 Q 236.6  129.18 236.23 128.21 Q 236.23  128.21 236.03 127.25 Q 236.03  127.25 235.89 126.28 Q 235.89  126.28 235.6 125.32 Q 235.6  125.32 235.07 124.53 Q 235.07  124.53 234.31 124.11 Q 234.31  124.11 233.32 124.09 Q 233.32  124.09 232.09 124.35 Q 232.09  124.35 230.62 124.84 Q 230.62  124.84 228.93 125.57 Q 228.93  125.57 227.12 126.34 Q 227.12  126.34 225.42 126.84 Q 225.42  126.84 223.89 126.87 Q 223.89  126.87 222.43 126.44 Q 222.43  126.44 220.98 125.64 Q 220.98  125.64 219.53 124.68 Q 219.53  124.68 218.03 123.67 Q 218.03  123.67 216.39 122.51 Q 216.39  122.51 214.51 121.08 Q 214.51  121.08 212.41 119.28 Q 212.41  119.28 210.22 117.18 Q 210.22  117.18 208.49 115.29 Q 208.49  115.29 207.54 113.88 Q 207.54  113.88 207.15 112.48 Q 207.15  112.48 207.16 110.7 Q 207.16  110.7 208.0 109.0 " fill="rgb(253,253,253)"/> <path d="M 198.0 127.0 Q 198.0  127.0 201.52 127.43 Q 201.52  127.43 204.17 128.43 Q 204.17  128.43 206.08 129.58 Q 206.08  129.58 207.35 130.54 Q 207.35  130.54 207.9 131.27 Q 207.9  131.27 207.67 131.83 Q 207.67  131.83 206.62 132.27 Q 206.62  132.27 205.1 132.56 Q 205.1  132.56 203.5 132.67 Q 203.5  132.67 202.15 132.56 Q 202.15  132.56 201.02 132.3 Q 201.02  132.3 200.0 131.92 Q 200.0  131.92 198.96 131.42 Q 198.96  131.42 197.7 130.55 Q 197.7  130.55 196.0 129.0 " fill="rgb(253,253,253)"/> <path d="M 197.0 129.0 Q 197.0  129.0 198.47 129.79 Q 198.47  129.79 199.4 130.38 Q 199.4  130.38 200.08 130.82 Q 200.08  130.82 200.81 131.19 Q 200.81  131.19 201.69 131.5 Q 201.69  131.5 202.74 131.74 Q 202.74  131.74 203.96 131.9 Q 203.96  131.9 205.18 131.92 Q 205.18  131.92 206.02 131.77 Q 206.02  131.77 206.1 131.38 Q 206.1  131.38 205.27 130.67 Q 205.27  130.67 203.79 129.58 Q 203.79  129.58 202.0 128.0 " fill="rgb(7,7,7)"/> <path d="M 247.0 82.0 Q 247.0  82.0 268.55 82.85 Q 268.55  82.85 281.0 84.39 Q 281.0  84.39 292.69 85.4 Q 292.69  85.4 301.89 85.98 Q 301.89  85.98 305.36 86.47 Q 305.36  86.47 305.22 86.97 Q 305.22  86.97 304.55 87.45 Q 304.55  87.45 303.9 87.81 Q 303.9  87.81 303.09 87.99 Q 303.09  87.99 302.25 88.14 Q 302.25  88.14 301.57 88.46 Q 301.57  88.46 300.93 88.8 Q 300.93  88.8 300.16 88.98 Q 300.16  88.98 299.68 89.13 Q 299.68  89.13 299.98 89.44 Q 299.98  89.44 300.95 89.79 Q 300.95  89.79 302.27 89.98 Q 302.27  89.98 303.83 90.12 Q 303.83  90.12 305.68 90.45 Q 305.68  90.45 308.16 91.13 Q 308.16  91.13 311.6 92.22 Q 311.6  92.22 315.13 93.42 Q 315.13  93.42 317.47 94.29 Q 317.47  94.29 318.74 94.87 Q 318.74  94.87 319.82 95.41 Q 319.82  95.41 321.88 96.49 Q 321.88  96.49 326.02 98.71 Q 326.02  98.71 331.02 101.44 Q 331.02  101.44 334.57 103.46 Q 334.57  103.46 336.61 104.77 Q 336.61  104.77 338.4 106.08 Q 338.4  106.08 340.69 107.95 Q 340.69  107.95 343.76 110.82 Q 343.76  110.82 347.17 114.26 Q 347.17  114.26 350.02 117.38 Q 350.02  117.38 352.04 119.85 Q 352.04  119.85 353.49 121.8 Q 353.49  121.8 354.67 123.55 Q 354.67  123.55 355.92 125.57 Q 355.92  125.57 357.19 128.0 Q 357.19  128.0 358.14 130.71 Q 358.14  130.71 358.46 133.1 Q 358.46  133.1 357.93 134.27 Q 357.93  134.27 356.7 134.22 Q 356.7  134.22 355.23 133.74 Q 355.23  133.74 353.75 133.18 Q 353.75  133.18 352.26 132.44 Q 352.26  132.44 350.64 131.58 Q 350.64  131.58 348.68 130.84 Q 348.68  130.84 346.47 130.27 Q 346.47  130.27 344.48 129.78 Q 344.48  129.78 342.91 129.28 Q 342.91  129.28 341.66 128.8 Q 341.66  128.8 341.0 128.71 Q 341.0  128.71 341.61 129.81 Q 341.61  129.81 343.86 132.44 Q 343.86  132.44 347.63 136.27 Q 347.63  136.27 352.15 140.56 Q 352.15  140.56 355.81 144.18 Q 355.81  144.18 357.93 146.67 Q 357.93  146.67 359.25 148.69 Q 359.25  148.69 360.42 150.86 Q 360.42  150.86 361.83 153.67 Q 361.83  153.67 363.49 157.03 Q 363.49  157.03 364.84 159.93 Q 364.84  159.93 365.62 161.89 Q 365.62  161.89 366.14 163.42 Q 366.14  163.42 366.63 164.94 Q 366.63  164.94 367.13 166.62 Q 367.13  166.62 367.62 168.54 Q 367.62  168.54 368.12 170.7 Q 368.12  170.7 368.61 173.07 Q 368.61  173.07 369.11 175.53 Q 369.11  175.53 369.6 178.04 Q 369.6  178.04 370.1 180.69 Q 370.1  180.69 370.59 183.65 Q 370.59  183.65 371.08 187.14 Q 371.08  187.14 371.55 191.54 Q 371.55  191.54 371.87 197.51 Q 371.87  197.51 371.96 204.83 Q 371.96  204.83 371.8 210.73 Q 371.8  210.73 371.43 213.86 Q 371.43  213.86 370.95 217.74 Q 370.95  217.74 370.43 224.57 Q 370.43  224.57 369.77 230.31 Q 369.77  230.31 368.86 231.41 Q 368.86  231.41 367.58 229.51 Q 367.58  229.51 365.91 226.89 Q 365.91  226.89 364.28 224.41 Q 364.28  224.41 363.01 222.54 Q 363.01  222.54 361.98 221.15 Q 361.98  221.15 361.04 220.21 Q 361.04  220.21 360.34 220.49 Q 360.34  220.49 360.02 222.52 Q 360.02  222.52 359.84 224.95 Q 359.84  224.95 359.51 226.47 Q 359.51  226.47 359.18 228.06 Q 359.18  228.06 359.01 230.89 Q 359.01  230.89 358.85 234.27 Q 358.85  234.27 358.51 237.21 Q 358.51  237.21 358.05 239.63 Q 358.05  239.63 357.55 241.77 Q 357.55  241.77 357.06 243.78 Q 357.06  243.78 356.56 245.74 Q 356.56  245.74 356.07 247.6 Q 356.07  247.6 355.57 249.25 Q 355.57  249.25 355.08 250.77 Q 355.08  250.77 354.57 252.27 Q 354.57  252.27 353.96 253.99 Q 353.96  253.99 353.11 256.18 Q 353.11  256.18 351.71 259.36 Q 351.71  259.36 349.51 263.93 Q 349.51  263.93 347.01 268.86 Q 347.01  268.86 344.97 272.63 Q 344.97  272.63 343.48 275.17 Q 343.48  275.17 342.28 277.05 Q 342.28  277.05 341.15 278.71 Q 341.15  278.71 339.85 280.51 Q 339.85  280.51 338.22 282.64 Q 338.22  282.64 336.18 285.17 Q 336.18  285.17 334.17 287.58 Q 334.17  287.58 332.73 289.22 Q 332.73  289.22 330.42 291.49 Q 330.42  291.49 324.92 296.7 Q 324.92  296.7 317.81 303.27 Q 317.81  303.27 312.88 307.43 Q 312.88  307.43 310.48 308.8 Q 310.48  308.8 308.75 309.28 Q 308.75  309.28 307.56 309.28 Q 307.56  309.28 308.0 308.17 Q 308.0  308.17 309.73 306.19 Q 309.73  306.19 311.39 304.26 Q 311.39  304.26 312.56 302.66 Q 312.56  302.66 313.57 301.14 Q 313.57  301.14 314.85 299.0 Q 314.85  299.0 316.85 295.24 Q 316.85  295.24 319.28 290.37 Q 319.28  290.37 321.23 286.21 Q 321.23  286.21 322.42 283.41 Q 322.42  283.41 323.17 281.41 Q 323.17  281.41 323.74 279.79 Q 323.74  279.79 324.23 278.3 Q 324.23  278.3 324.73 276.75 Q 324.73  276.75 325.22 275.03 Q 325.22  275.03 325.72 273.07 Q 325.72  273.07 326.21 270.86 Q 326.21  270.86 326.71 268.35 Q 326.71  268.35 327.2 265.4 Q 327.2  265.4 327.64 261.11 Q 327.64  261.11 327.91 253.67 Q 327.91  253.67 327.94 243.7 Q 327.94  243.7 327.73 235.14 Q 327.73  235.14 327.27 229.86 Q 327.27  229.86 326.57 226.44 Q 326.57  226.44 325.76 223.61 Q 325.76  223.61 325.2 220.7 Q 325.2  220.7 324.97 217.84 Q 324.97  217.84 324.75 216.23 Q 324.75  216.23 324.35 216.35 Q 324.35  216.35 323.86 217.27 Q 323.86  217.27 323.41 218.26 Q 323.41  218.26 323.11 219.25 Q 323.11  219.25 322.93 220.32 Q 322.93  220.32 322.54 221.69 Q 322.54  221.69 321.72 223.53 Q 321.72  223.53 320.57 225.86 Q 320.57  225.86 319.09 228.72 Q 319.09  228.72 317.07 232.21 Q 317.07  232.21 314.37 236.29 Q 314.37  236.29 311.09 240.53 Q 311.09  240.53 307.59 244.22 Q 307.59  244.22 304.86 246.11 Q 304.86  246.11 303.59 245.33 Q 303.59  245.33 303.34 242.17 Q 303.34  242.17 303.53 237.42 Q 303.53  237.42 303.66 232.75 Q 303.66  232.75 303.42 229.5 Q 303.42  229.5 302.96 227.55 Q 302.96  227.55 302.49 226.46 Q 302.49  226.46 302.15 225.43 Q 302.15  225.43 301.99 223.93 Q 301.99  223.93 301.82 222.46 Q 301.82  222.46 301.49 221.52 Q 301.49  221.52 301.16 220.82 Q 301.16  220.82 301.02 220.06 Q 301.02  220.06 301.0 219.67 Q 301.0  219.67 300.98 220.05 Q 300.98  220.05 300.84 220.81 Q 300.84  220.81 300.52 221.55 Q 300.52  221.55 300.18 222.74 Q 300.18  222.74 300.01 224.94 Q 300.01  224.94 299.85 227.78 Q 299.85  227.78 299.52 230.72 Q 299.52  230.72 299.05 233.43 Q 299.05  233.43 298.55 235.72 Q 298.55  235.72 298.06 237.63 Q 298.06  237.63 297.56 239.28 Q 297.56  239.28 297.07 240.79 Q 297.07  240.79 296.56 242.3 Q 296.56  242.3 295.95 244.02 Q 295.95  244.02 295.08 246.24 Q 295.08  246.24 293.55 249.55 Q 293.55  249.55 290.99 254.52 Q 290.99  254.52 287.59 260.56 Q 287.59  260.56 283.83 266.64 Q 283.83  266.64 280.01 272.19 Q 280.01  272.19 276.4 276.85 Q 276.4  276.85 273.31 280.45 Q 273.31  280.45 271.07 282.88 Q 271.07  282.88 269.62 284.27 Q 269.62  284.27 268.69 284.88 Q 268.69  284.88 267.62 285.21 Q 267.62  285.21 265.74 285.74 Q 265.74  285.74 263.83 285.99 Q 263.83  285.99 263.44 284.97 Q 263.44  284.97 264.31 282.92 Q 264.31  282.92 265.24 280.67 Q 265.24  280.67 266.1 277.69 Q 266.1  277.69 267.41 272.68 Q 267.41  272.68 268.98 266.25 Q 268.98  266.25 270.13 260.23 Q 270.13  260.23 270.63 255.25 Q 270.63  255.25 270.59 251.12 Q 270.59  251.12 270.21 247.8 Q 270.21  247.8 269.71 245.41 Q 269.71  245.41 269.22 244.14 Q 269.22  244.14 268.72 244.21 Q 268.72  244.21 268.16 245.47 Q 268.16  245.47 267.39 247.49 Q 267.39  247.49 266.12 250.74 Q 266.12  250.74 263.9 256.41 Q 263.9  256.41 261.1 263.44 Q 261.1  263.44 258.87 268.65 Q 258.87  268.65 257.14 271.5 Q 257.14  271.5 254.71 274.21 Q 254.71  274.21 251.56 277.38 Q 251.56  277.38 249.03 279.67 Q 249.03  279.67 247.59 280.69 Q 247.59  280.69 246.58 281.21 Q 246.58  281.21 245.53 281.7 Q 245.53  281.7 244.32 282.2 Q 244.32  282.2 242.92 282.69 Q 242.92  282.69 241.43 283.19 Q 241.43  283.19 239.79 283.58 Q 239.79  283.58 237.67 283.63 Q 237.67  283.63 235.56 283.06 Q 235.56  283.06 235.15 281.52 Q 235.15  281.52 236.9 279.0 Q 236.9  279.0 239.16 276.07 Q 239.16  276.07 240.84 273.24 Q 240.84  273.24 241.94 270.88 Q 241.94  270.88 242.62 269.11 Q 242.62  269.11 243.13 267.6 Q 243.13  267.6 243.63 266.03 Q 243.63  266.03 244.12 264.15 Q 244.12  264.15 244.58 260.71 Q 244.58  260.71 244.88 252.58 Q 244.88  252.58 245.03 239.61 Q 245.03  239.61 245.22 228.34 Q 245.22  228.34 245.61 223.03 Q 245.61  223.03 246.09 221.07 Q 246.09  221.07 246.49 219.99 Q 246.49  219.99 246.45 219.68 Q 246.45  219.68 245.88 220.17 Q 245.88  220.17 245.27 220.93 Q 245.27  220.93 244.94 221.64 Q 244.94  221.64 244.41 222.65 Q 244.41  222.65 243.24 224.28 Q 243.24  224.28 241.47 226.38 Q 241.47  226.38 239.34 228.62 Q 239.34  228.62 237.37 230.44 Q 237.37  230.44 236.01 231.36 Q 236.01  231.36 235.13 231.31 Q 235.13  231.31 234.54 230.36 Q 234.54  230.36 234.33 228.95 Q 234.33  228.95 234.57 227.47 Q 234.57  227.47 235.17 225.99 Q 235.17  225.99 236.0 224.5 Q 236.0  224.5 236.82 223.02 Q 236.82  223.02 237.47 221.54 Q 237.47  221.54 237.98 220.05 Q 237.98  220.05 238.46 218.39 Q 238.46  218.39 238.82 215.55 Q 238.82  215.55 238.96 210.7 Q 238.96  210.7 238.85 204.65 Q 238.85  204.65 238.52 198.68 Q 238.52  198.68 238.05 193.74 Q 238.05  193.74 237.56 190.46 Q 237.56  190.46 237.06 188.38 Q 237.06  188.38 236.57 186.73 Q 236.57  186.73 236.07 185.21 Q 236.07  185.21 235.58 183.74 Q 235.58  183.74 235.08 182.38 Q 235.08  182.38 234.59 181.21 Q 234.59  181.21 234.09 180.19 Q 234.09  180.19 233.59 179.19 Q 233.59  179.19 232.98 178.09 Q 232.98  178.09 232.18 176.8 Q 232.18  176.8 231.23 175.46 Q 231.23  175.46 230.29 174.3 Q 230.29  174.3 229.81 173.47 Q 229.81  173.47 230.31 173.08 Q 230.31  173.08 231.49 173.0 Q 231.49  173.0 232.72 173.03 Q 232.72  173.03 234.33 173.41 Q 234.33  173.41 237.02 174.56 Q 237.02  174.56 240.24 176.17 Q 240.24  176.17 242.8 177.61 Q 242.8  177.61 244.97 179.24 Q 244.97  179.24 247.82 181.88 Q 247.82  181.88 250.93 185.02 Q 250.93  185.02 252.94 187.31 Q 252.94  187.31 253.8 188.7 Q 253.8  188.7 254.3 189.97 Q 254.3  189.97 254.71 191.48 Q 254.71  191.48 254.95 193.23 Q 254.95  193.23 255.08 194.99 Q 255.08  194.99 255.34 196.43 Q 255.34  196.43 255.7 197.24 Q 255.7  197.24 255.94 197.2 Q 255.94  197.2 256.07 196.53 Q 256.07  196.53 256.33 195.77 Q 256.33  195.77 256.69 194.38 Q 256.69  194.38 256.92 190.93 Q 256.92  190.93 256.86 186.04 Q 256.86  186.04 256.39 182.33 Q 256.39  182.33 255.92 180.63 Q 255.92  180.63 256.37 179.85 Q 256.37  179.85 257.85 179.41 Q 257.85  179.41 259.57 179.38 Q 259.57  179.38 261.07 179.72 Q 261.07  179.72 262.33 180.21 Q 262.33  180.21 263.4 180.7 Q 263.4  180.7 264.4 181.21 Q 264.4  181.21 265.82 182.19 Q 265.82  182.19 268.57 184.66 Q 268.57  184.66 272.48 188.64 Q 272.48  188.64 275.87 192.67 Q 275.87  192.67 277.82 195.79 Q 277.82  195.79 278.71 197.93 Q 278.71  197.93 279.03 198.86 Q 279.03  198.86 279.25 198.02 Q 279.25  198.02 279.66 195.67 Q 279.66  195.67 280.14 193.48 Q 280.14  193.48 280.59 191.85 Q 280.59  191.85 280.89 188.74 Q 280.89  188.74 280.95 183.57 Q 280.95  183.57 280.77 178.88 Q 280.77  178.88 280.41 176.26 Q 280.41  176.26 280.12 174.67 Q 280.12  174.67 280.08 173.3 Q 280.08  173.3 280.44 172.37 Q 280.44  172.37 281.28 172.1 Q 281.28  172.1 282.61 172.43 Q 282.61  172.43 284.79 173.12 Q 284.79  173.12 289.02 173.74 Q 289.02  173.74 295.4 173.94 Q 295.4  173.94 300.9 173.8 Q 300.9  173.8 303.37 173.45 Q 303.37  173.45 304.25 173.14 Q 304.25  173.14 304.89 172.96 Q 304.89  172.96 304.57 172.62 Q 304.57  172.62 302.74 171.91 Q 302.74  171.91 300.53 171.12 Q 300.53  171.12 298.99 170.46 Q 298.99  170.46 297.77 169.8 Q 297.77  169.8 296.36 168.85 Q 296.36  168.85 294.44 167.28 Q 294.44  167.28 291.98 164.94 Q 291.98  164.94 289.66 162.49 Q 289.66  162.49 288.09 160.53 Q 288.09  160.53 287.02 158.7 Q 287.02  158.7 285.95 156.51 Q 285.95  156.51 284.41 153.94 Q 284.41  153.94 282.07 151.21 Q 282.07  151.21 279.33 148.94 Q 279.33  148.94 276.75 147.66 Q 276.75  147.66 274.65 147.04 Q 274.65  147.04 273.19 146.52 Q 273.19  146.52 272.25 145.77 Q 272.25  145.77 271.66 144.59 Q 271.66  144.59 271.75 142.91 Q 271.75  142.91 272.87 140.77 Q 272.87  140.77 274.57 138.23 Q 274.57  138.23 276.21 135.58 Q 276.21  135.58 277.49 133.91 Q 277.49  133.91 278.37 134.34 Q 278.37  134.34 279.15 135.54 Q 279.15  135.54 280.25 135.52 Q 280.25  135.52 281.44 134.44 Q 281.44  134.44 282.31 133.25 Q 282.31  133.25 282.88 132.12 Q 282.88  132.12 283.37 130.82 Q 283.37  130.82 283.76 129.27 Q 283.76  129.27 283.97 127.49 Q 283.97  127.49 284.11 125.55 Q 284.11  125.55 284.42 123.58 Q 284.42  123.58 285.06 121.7 Q 285.06  121.7 286.12 120.02 Q 286.12  120.02 287.42 118.68 Q 287.42  118.68 288.63 117.76 Q 288.63  117.76 289.85 117.17 Q 289.85  117.17 291.43 116.68 Q 291.43  116.68 293.73 116.27 Q 293.73  116.27 297.05 116.05 Q 297.05  116.05 300.57 115.91 Q 300.57  115.91 302.86 115.65 Q 302.86  115.65 304.04 115.29 Q 304.04  115.29 305.28 115.06 Q 305.28  115.06 305.85 115.0 Q 305.85  115.0 303.64 115.0 Q 303.64  115.0 298.74 114.92 Q 298.74  114.92 293.1 114.66 Q 293.1  114.66 287.82 114.16 Q 287.82  114.16 283.12 113.42 Q 283.12  113.42 278.83 112.63 Q 278.83  112.63 274.39 112.14 Q 274.39  112.14 269.97 111.87 Q 269.97  111.87 266.5 111.38 Q 266.5  111.38 264.22 110.66 Q 264.22  110.66 262.7 110.16 Q 262.7  110.16 261.44 110.13 Q 261.44  110.13 259.96 110.59 Q 259.96  110.59 257.49 111.31 Q 257.49  111.31 253.01 111.84 Q 253.01  111.84 246.74 112.22 Q 246.74  112.22 240.49 113.12 Q 240.49  113.12 235.14 114.56 Q 235.14  114.56 230.17 115.63 Q 230.17  115.63 225.58 115.82 Q 225.58  115.82 222.14 115.2 Q 222.14  115.2 220.09 113.98 Q 220.09  113.98 218.77 112.51 Q 218.77  112.51 217.74 111.08 Q 217.74  111.08 216.95 109.8 Q 216.95  109.8 216.41 108.58 Q 216.41  108.58 216.11 106.98 Q 216.11  106.98 216.05 104.93 Q 216.05  104.93 216.24 103.07 Q 216.24  103.07 216.71 101.74 Q 216.71  101.74 217.58 100.53 Q 217.58  100.53 218.78 99.27 Q 218.78  99.27 219.87 98.35 Q 219.87  98.35 220.69 97.89 Q 220.69  97.89 221.76 97.12 Q 221.76  97.12 223.37 95.66 Q 223.37  95.66 225.13 94.08 Q 225.13  94.08 226.83 92.83 Q 226.83  92.83 228.85 91.64 Q 228.85  91.64 231.37 90.34 Q 231.37  90.34 233.79 89.21 Q 233.79  89.21 235.66 88.5 Q 235.66  88.5 237.36 88.14 Q 237.36  88.14 238.8 87.99 Q 238.8  87.99 238.34 87.81 Q 238.34  87.81 235.17 87.45 Q 235.17  87.45 232.03 86.97 Q 232.03  86.97 231.26 86.47 Q 231.26  86.47 231.87 85.98 Q 231.87  85.98 232.58 85.47 Q 232.58  85.47 233.61 84.9 Q 233.61  84.9 235.67 84.17 Q 235.67  84.17 240.0 83.0 " fill="rgb(7,7,7)"/> <path d="M 247.0 83.0 Q 247.0  83.0 239.7 84.19 Q 239.7  84.19 236.23 85.06 Q 236.23  85.06 233.91 85.96 Q 233.91  85.96 233.6 86.8 Q 233.6  86.8 236.3 87.45 Q 236.3  87.45 239.22 87.97 Q 239.22  87.97 239.31 88.46 Q 239.31  88.46 237.51 88.96 Q 237.51  88.96 235.66 89.48 Q 235.66  89.48 233.75 90.22 Q 233.75  90.22 231.32 91.36 Q 231.32  91.36 228.81 92.66 Q 228.81  92.66 226.79 93.85 Q 226.79  93.85 224.98 95.1 Q 224.98  95.1 222.89 96.71 Q 222.89  96.71 220.83 98.39 Q 220.83  98.39 219.31 99.74 Q 219.31  99.74 218.32 100.8 Q 218.32  100.8 217.65 101.82 Q 217.65  101.82 217.23 103.12 Q 217.23  103.12 217.05 105.0 Q 217.05  105.0 217.11 107.05 Q 217.11  107.05 217.42 108.63 Q 217.42  108.63 217.97 109.84 Q 217.97  109.84 218.76 111.11 Q 218.76  111.11 219.71 112.46 Q 219.71  112.46 220.75 113.64 Q 220.75  113.64 222.48 114.49 Q 222.48  114.49 225.76 114.88 Q 225.76  114.88 230.32 114.62 Q 230.32  114.62 235.29 113.52 Q 235.29  113.52 240.66 112.08 Q 240.66  112.08 246.93 111.2 Q 246.93  111.2 253.17 110.83 Q 253.17  110.83 257.58 110.29 Q 257.58  110.29 260.01 109.57 Q 260.01  109.57 261.47 109.13 Q 261.47  109.13 262.73 109.17 Q 262.73  109.17 264.27 109.68 Q 264.27  109.68 266.57 110.4 Q 266.57  110.4 270.08 110.88 Q 270.08  110.88 274.5 111.14 Q 274.5  111.14 278.94 111.65 Q 278.94  111.65 283.23 112.44 Q 283.23  112.44 287.94 113.18 Q 287.94  113.18 293.3 113.74 Q 293.3  113.74 299.17 114.24 Q 299.17  114.24 304.27 114.8 Q 304.27  114.8 306.17 115.52 Q 306.17  115.52 304.43 116.32 Q 304.43  116.32 300.84 116.84 Q 300.84  116.84 296.91 117.05 Q 296.91  117.05 293.62 117.29 Q 293.62  117.29 291.35 117.7 Q 291.35  117.7 289.79 118.19 Q 289.79  118.19 288.64 118.74 Q 288.64  118.74 287.64 119.45 Q 287.64  119.45 286.7 120.46 Q 286.7  120.46 285.93 121.87 Q 285.93  121.87 285.39 123.66 Q 285.39  123.66 285.1 125.63 Q 285.1  125.63 284.96 127.56 Q 284.96  127.56 284.75 129.33 Q 284.75  129.33 284.35 130.87 Q 284.35  130.87 283.86 132.16 Q 283.86  132.16 283.25 133.33 Q 283.25  133.33 282.17 134.72 Q 282.17  134.72 280.62 136.14 Q 280.62  136.14 279.24 136.39 Q 279.24  136.39 278.42 135.14 Q 278.42  135.14 277.9 134.05 Q 277.9  134.05 277.4 134.3 Q 277.4  134.3 276.91 135.4 Q 276.91  135.4 276.32 136.83 Q 276.32  136.83 275.29 138.65 Q 275.29  138.65 273.79 140.8 Q 273.79  140.8 272.54 142.73 Q 272.54  142.73 272.12 144.05 Q 272.12  144.05 272.39 144.92 Q 272.39  144.92 273.21 145.54 Q 273.21  145.54 274.66 146.05 Q 274.66  146.05 276.8 146.7 Q 276.8  146.7 279.54 148.14 Q 279.54  148.14 282.61 150.75 Q 282.61  150.75 285.27 153.8 Q 285.27  153.8 286.94 156.5 Q 286.94  156.5 288.02 158.71 Q 288.02  158.71 289.08 160.52 Q 289.08  160.52 290.5 162.33 Q 290.5  162.33 292.5 164.45 Q 292.5  164.45 294.62 166.46 Q 294.62  166.46 296.38 167.88 Q 296.38  167.88 297.78 168.8 Q 297.78  168.8 298.92 169.45 Q 298.92  169.45 299.93 169.97 Q 299.93  169.97 300.92 170.44 Q 300.92  170.44 301.91 170.81 Q 301.91  170.81 302.88 170.99 Q 302.88  170.99 303.75 171.14 Q 303.75  171.14 304.42 171.47 Q 304.42  171.47 305.07 171.93 Q 305.07  171.93 305.81 172.44 Q 305.81  172.44 306.06 173.05 Q 306.06  173.05 304.98 173.84 Q 304.98  173.84 301.73 174.57 Q 301.73  174.57 295.81 174.91 Q 295.81  174.91 289.29 174.76 Q 289.29  174.76 284.93 174.16 Q 284.93  174.16 282.69 173.46 Q 282.69  173.46 281.34 173.1 Q 281.34  173.1 280.58 173.23 Q 280.58  173.23 280.5 173.83 Q 280.5  173.83 280.87 174.84 Q 280.87  174.84 281.35 176.21 Q 281.35  176.21 281.75 178.7 Q 281.75  178.7 281.95 183.33 Q 281.95  183.33 281.9 189.11 Q 281.9  189.11 281.61 193.99 Q 281.61  193.99 281.07 197.34 Q 281.07  197.34 280.3 199.36 Q 280.3  199.36 279.36 200.08 Q 279.36  200.08 278.37 199.41 Q 278.37  199.41 277.38 197.67 Q 277.38  197.67 276.36 195.41 Q 276.36  195.41 274.81 192.67 Q 274.81  192.67 271.99 189.17 Q 271.99  189.17 268.48 185.56 Q 268.48  185.56 265.87 183.21 Q 265.87  183.21 264.46 182.24 Q 264.46  182.24 263.46 181.73 Q 263.46  181.73 262.4 181.24 Q 262.4  181.24 261.16 180.74 Q 261.16  180.74 259.74 180.32 Q 259.74  180.32 258.27 180.08 Q 258.27  180.08 257.12 180.14 Q 257.12  180.14 256.84 180.64 Q 256.84  180.64 257.35 182.18 Q 257.35  182.18 257.84 185.76 Q 257.84  185.76 257.87 190.83 Q 257.87  190.83 257.41 195.11 Q 257.41  195.11 256.64 197.44 Q 256.64  197.44 255.88 198.09 Q 255.88  198.09 255.31 197.64 Q 255.31  197.64 254.81 196.89 Q 254.81  196.89 254.37 196.16 Q 254.37  196.16 254.09 195.01 Q 254.09  195.01 253.95 193.34 Q 253.95  193.34 253.74 191.59 Q 253.74  191.59 253.33 190.07 Q 253.33  190.07 252.84 188.78 Q 252.84  188.78 252.07 187.47 Q 252.07  187.47 250.36 185.46 Q 250.36  185.46 247.65 182.7 Q 247.65  182.7 245.03 180.27 Q 245.03  180.27 242.94 178.7 Q 242.94  178.7 240.45 177.28 Q 240.45  177.28 237.25 175.67 Q 237.25  175.67 234.47 174.47 Q 234.47  174.47 232.85 174.0 Q 232.85  174.0 231.8 173.78 Q 231.8  173.78 230.95 173.5 Q 230.95  173.5 230.68 173.56 Q 230.68  173.56 231.22 174.24 Q 231.22  174.24 232.16 175.37 Q 232.16  175.37 233.11 176.7 Q 233.11  176.7 233.93 178.0 Q 233.93  178.0 234.55 179.11 Q 234.55  179.11 235.06 180.11 Q 235.06  180.11 235.55 181.13 Q 235.55  181.13 236.04 182.28 Q 236.04  182.28 236.54 183.63 Q 236.54  183.63 237.03 185.1 Q 237.03  185.1 237.53 186.61 Q 237.53  186.61 238.02 188.25 Q 238.02  188.25 238.52 190.27 Q 238.52  190.27 239.01 193.42 Q 239.01  193.42 239.48 198.25 Q 239.48  198.25 239.83 204.17 Q 239.83  204.17 239.96 210.25 Q 239.96  210.25 239.84 215.24 Q 239.84  215.24 239.49 218.22 Q 239.49  218.22 239.02 219.93 Q 239.02  219.93 238.51 221.42 Q 238.51  221.42 237.88 222.9 Q 237.88  222.9 237.09 224.37 Q 237.09  224.37 236.38 225.72 Q 236.38  225.72 236.04 226.86 Q 236.04  226.86 235.86 227.75 Q 235.86  227.75 235.55 228.42 Q 235.55  228.42 235.2 229.07 Q 235.2  229.07 235.06 229.85 Q 235.06  229.85 235.26 230.45 Q 235.26  230.45 235.92 230.45 Q 235.92  230.45 237.07 229.71 Q 237.07  229.71 238.68 228.27 Q 238.68  228.27 240.47 226.28 Q 240.47  226.28 242.14 224.02 Q 242.14  224.02 243.66 221.79 Q 243.66  221.79 245.12 219.99 Q 245.12  219.99 246.29 219.04 Q 246.29  219.04 246.87 219.37 Q 246.87  219.37 246.89 220.71 Q 246.89  220.71 246.6 222.72 Q 246.6  222.72 246.25 227.63 Q 246.25  227.63 246.04 238.41 Q 246.04  238.41 245.9 251.52 Q 245.9  251.52 245.61 260.22 Q 245.61  260.22 245.17 263.94 Q 245.17  263.94 244.67 265.88 Q 244.67  265.88 244.18 267.46 Q 244.18  267.46 243.68 268.96 Q 243.68  268.96 243.01 270.69 Q 243.01  270.69 241.96 272.99 Q 241.96  272.99 240.35 275.79 Q 240.35  275.79 238.12 278.73 Q 238.12  278.73 236.17 281.23 Q 236.17  281.23 236.08 282.62 Q 236.08  282.62 237.74 282.91 Q 237.74  282.91 239.68 282.67 Q 239.68  282.67 241.29 282.23 Q 241.29  282.23 242.77 281.74 Q 242.77  281.74 244.19 281.25 Q 244.19  281.25 245.42 280.75 Q 245.42  280.75 246.48 280.26 Q 246.48  280.26 247.48 279.75 Q 247.48  279.75 248.79 278.88 Q 248.79  278.88 250.95 276.97 Q 250.95  276.97 253.74 274.19 Q 253.74  274.19 256.02 271.68 Q 256.02  271.68 257.39 269.72 Q 257.39  269.72 258.41 267.51 Q 258.41  267.51 259.67 264.07 Q 259.67  264.07 261.77 258.24 Q 261.77  258.24 264.56 250.82 Q 264.56  250.82 266.9 245.21 Q 266.9  245.21 268.32 243.06 Q 268.32  243.06 269.34 243.25 Q 269.34  243.25 270.28 244.84 Q 270.28  244.84 271.06 247.4 Q 271.06  247.4 271.55 250.72 Q 271.55  250.72 271.65 254.77 Q 271.65  254.77 271.3 259.3 Q 271.3  259.3 270.62 263.62 Q 270.62  263.62 269.73 267.42 Q 269.73  267.42 268.75 271.1 Q 268.75  271.1 267.8 274.8 Q 267.8  274.8 267.0 277.98 Q 267.0  277.98 266.33 280.42 Q 266.33  280.42 265.45 282.63 Q 265.45  282.63 264.26 284.88 Q 264.26  284.88 263.16 286.8 Q 263.16  286.8 262.54 288.03 Q 262.54  288.03 262.55 288.53 Q 262.55  288.53 263.28 288.29 Q 263.28  288.29 264.74 287.32 Q 264.74  287.32 266.76 285.77 Q 266.76  285.77 268.69 284.17 Q 268.69  284.17 270.19 282.76 Q 270.19  282.76 272.04 280.77 Q 272.04  280.77 274.88 277.48 Q 274.88  277.48 278.42 272.99 Q 278.42  272.99 282.12 267.74 Q 282.12  267.74 285.29 262.8 Q 285.29  262.8 287.48 258.99 Q 287.48  258.99 289.21 255.76 Q 289.21  255.76 291.0 252.48 Q 291.0  252.48 292.67 249.33 Q 292.67  249.33 293.93 246.61 Q 293.93  246.61 294.82 244.38 Q 294.82  244.38 295.46 242.6 Q 295.46  242.6 295.98 241.07 Q 295.98  241.07 296.47 239.57 Q 296.47  239.57 296.97 237.95 Q 296.97  237.95 297.46 236.1 Q 297.46  236.1 297.96 233.89 Q 297.96  233.89 298.43 231.25 Q 298.43  231.25 298.8 228.34 Q 298.8  228.34 299.0 225.4 Q 299.0  225.4 299.27 222.67 Q 299.27  222.67 299.92 220.46 Q 299.92  220.46 300.84 219.36 Q 300.84  219.36 301.82 219.94 Q 301.82  219.94 302.69 221.77 Q 302.69  221.77 303.37 224.06 Q 303.37  224.06 303.9 226.49 Q 303.9  226.49 304.38 229.03 Q 304.38  229.03 304.77 232.14 Q 304.77  232.14 304.95 236.35 Q 304.95  236.35 304.89 240.52 Q 304.89  240.52 304.6 242.97 Q 304.6  242.97 304.24 244.08 Q 304.24  244.08 304.1 245.09 Q 304.1  245.09 304.73 245.53 Q 304.73  245.53 306.75 244.09 Q 306.75  244.09 309.8 240.9 Q 309.8  240.9 312.95 236.9 Q 312.95  236.9 315.6 232.99 Q 315.6  232.99 317.45 229.93 Q 317.45  229.93 318.73 227.36 Q 318.73  227.36 320.0 224.28 Q 320.0  224.28 321.43 220.79 Q 321.43  220.79 322.9 217.71 Q 322.9  217.71 324.22 216.12 Q 324.22  216.12 325.18 217.09 Q 325.18  217.09 325.86 220.07 Q 325.86  220.07 326.62 223.23 Q 326.62  223.23 327.47 226.1 Q 327.47  226.1 328.2 229.41 Q 328.2  229.41 328.69 234.38 Q 328.69  234.38 328.93 242.56 Q 328.93  242.56 328.93 252.58 Q 328.93  252.58 328.68 260.45 Q 328.68  260.45 328.26 265.0 Q 328.26  265.0 327.76 268.03 Q 327.76  268.03 327.27 270.58 Q 327.27  270.58 326.78 272.82 Q 326.78  272.82 326.28 274.81 Q 326.28  274.81 325.79 276.56 Q 325.79  276.56 325.29 278.12 Q 325.29  278.12 324.8 279.61 Q 324.8  279.61 324.25 281.2 Q 324.25  281.2 323.53 283.14 Q 323.53  283.14 322.41 285.81 Q 322.41  285.81 320.56 289.79 Q 320.56  289.79 318.14 294.67 Q 318.14  294.67 316.05 298.64 Q 316.05  298.64 314.7 300.93 Q 314.7  300.93 313.68 302.47 Q 313.68  302.47 312.56 304.05 Q 312.56  304.05 310.96 305.93 Q 310.96  305.93 309.12 307.91 Q 309.12  307.91 308.27 308.98 Q 308.27  308.98 308.96 308.72 Q 308.96  308.72 310.38 307.98 Q 310.38  307.98 312.48 306.72 Q 312.48  306.72 317.0 303.0 Q 317.0  303.0 324.17 296.35 Q 324.17  296.35 330.81 289.85 Q 330.81  289.85 334.75 285.63 Q 334.75  285.63 337.02 282.89 Q 337.02  282.89 338.7 280.72 Q 338.7  280.72 340.03 278.89 Q 340.03  278.89 341.16 277.23 Q 341.16  277.23 342.34 275.39 Q 342.34  275.39 343.79 272.96 Q 343.79  272.96 345.76 269.35 Q 345.76  269.35 348.24 264.48 Q 348.24  264.48 350.51 259.79 Q 350.51  259.79 351.99 256.47 Q 351.99  256.47 352.88 254.2 Q 352.88  254.2 353.51 252.45 Q 353.51  252.45 354.02 250.93 Q 354.02  250.93 354.52 249.43 Q 354.52  249.43 355.01 247.79 Q 355.01  247.79 355.51 245.96 Q 355.51  245.96 356.0 244.0 Q 356.0  244.0 356.49 242.0 Q 356.49  242.0 356.99 239.88 Q 356.99  239.88 357.46 237.5 Q 357.46  237.5 357.82 234.65 Q 357.82  234.65 358.01 231.13 Q 358.01  231.13 358.3 227.12 Q 358.3  227.12 358.99 223.02 Q 358.99  223.02 360.06 220.15 Q 360.06  220.15 361.42 219.77 Q 361.42  219.77 363.25 221.67 Q 363.25  221.67 365.65 225.04 Q 365.65  225.04 367.92 228.58 Q 367.92  228.58 369.26 230.81 Q 369.26  230.81 369.79 229.9 Q 369.79  229.9 369.98 224.59 Q 369.98  224.59 370.13 217.97 Q 370.13  217.97 370.43 214.04 Q 370.43  214.04 370.78 211.05 Q 370.78  211.05 370.95 205.38 Q 370.95  205.38 370.88 198.07 Q 370.88  198.07 370.58 191.94 Q 370.58  191.94 370.12 187.45 Q 370.12  187.45 369.63 183.91 Q 369.63  183.91 369.13 180.92 Q 369.13  180.92 368.64 178.25 Q 368.64  178.25 368.15 175.73 Q 368.15  175.73 367.65 173.27 Q 367.65  173.27 367.16 170.89 Q 367.16  170.89 366.66 168.71 Q 366.66  168.71 366.17 166.77 Q 366.17  166.77 365.67 165.07 Q 365.67  165.07 365.18 163.54 Q 365.18  163.54 364.66 162.01 Q 364.66  162.01 363.75 159.78 Q 363.75  159.78 361.91 155.89 Q 361.91  155.89 359.46 151.09 Q 359.46  151.09 357.27 147.28 Q 357.27  147.28 355.08 144.46 Q 355.08  144.46 351.79 141.19 Q 351.79  141.19 347.93 137.63 Q 347.93  137.63 345.3 135.23 Q 345.3  135.23 343.96 133.88 Q 343.96  133.88 342.46 132.13 Q 342.46  132.13 340.79 129.9 Q 340.79  129.9 340.32 128.43 Q 340.32  128.43 341.59 128.15 Q 341.59  128.15 344.25 128.62 Q 344.25  128.62 347.53 129.47 Q 347.53  129.47 350.29 130.45 Q 350.29  130.45 352.32 131.44 Q 352.32  131.44 354.51 132.42 Q 354.51  132.42 356.85 133.18 Q 356.85  133.18 358.21 133.26 Q 358.21  133.26 358.27 132.53 Q 358.27  132.53 357.81 131.34 Q 357.81  131.34 357.21 129.83 Q 357.21  129.83 356.28 127.92 Q 356.28  127.92 355.02 125.72 Q 355.02  125.72 353.76 123.68 Q 353.76  123.68 352.58 121.93 Q 352.58  121.93 351.17 120.01 Q 351.17  120.01 349.24 117.64 Q 349.24  117.64 346.67 114.77 Q 346.67  114.77 343.62 111.68 Q 343.62  111.68 340.78 109.03 Q 340.78  109.03 338.55 107.19 Q 338.55  107.19 336.74 105.86 Q 336.74  105.86 335.04 104.73 Q 335.04  104.73 332.98 103.55 Q 332.98  103.55 330.29 102.13 Q 330.29  102.13 327.17 100.47 Q 327.17  100.47 324.0 98.71 Q 324.0  98.71 321.45 97.29 Q 321.45  97.29 319.89 96.45 Q 319.89  96.45 318.84 95.92 Q 318.84  95.92 317.63 95.36 Q 317.63  95.36 315.45 94.53 Q 315.45  94.53 311.9 93.35 Q 311.9  93.35 307.89 92.22 Q 307.89  92.22 304.34 91.48 Q 304.34  91.48 301.83 90.96 Q 301.83  90.96 300.53 90.46 Q 300.53  90.46 299.78 89.97 Q 299.78  89.97 299.17 89.42 Q 299.17  89.42 299.74 88.62 Q 299.74  88.62 301.24 87.48 Q 301.24  87.48 297.99 86.48 Q 297.99  86.48 285.33 85.67 Q 285.33  85.67 267.0 83.0 " fill="rgb(253,253,253)"/> <path d="M 265.0 120.0 Q 265.0  120.0 265.82 122.87 Q 265.82  122.87 265.88 125.57 Q 265.88  125.57 265.58 127.46 Q 265.58  127.46 264.87 128.84 Q 264.87  128.84 263.49 130.43 Q 263.49  130.43 261.62 132.26 Q 261.62  132.26 259.78 133.72 Q 259.78  133.72 258.11 134.51 Q 258.11  134.51 256.13 134.85 Q 256.13  134.85 253.56 134.96 Q 253.56  134.96 250.98 134.86 Q 250.98  134.86 248.97 134.54 Q 248.97  134.54 247.3 133.77 Q 247.3  133.77 245.47 132.33 Q 245.47  132.33 243.65 130.38 Q 243.65  130.38 242.46 128.36 Q 242.46  128.36 242.13 126.73 Q 242.13  126.73 242.42 125.94 Q 242.42  125.94 243.05 126.14 Q 243.05  126.14 243.65 126.8 Q 243.65  126.8 243.96 127.41 Q 243.96  127.41 244.22 127.99 Q 244.22  127.99 244.75 128.7 Q 244.75  128.7 245.55 129.48 Q 245.55  129.48 246.45 130.15 Q 246.45  130.15 247.35 130.67 Q 247.35  130.67 248.25 131.12 Q 248.25  131.12 249.24 131.54 Q 249.24  131.54 250.57 131.84 Q 250.57  131.84 252.37 131.96 Q 252.37  131.96 254.2 131.87 Q 254.2  131.87 255.61 131.59 Q 255.61  131.59 256.63 131.18 Q 256.63  131.18 257.53 130.73 Q 257.53  130.73 258.37 130.22 Q 258.37  130.22 259.06 129.58 Q 259.06  129.58 259.45 128.88 Q 259.45  128.88 259.26 128.47 Q 259.26  128.47 258.41 128.5 Q 258.41  128.5 257.27 128.52 Q 257.27  128.52 256.24 128.06 Q 256.24  128.06 255.5 127.07 Q 255.5  127.07 255.13 125.67 Q 255.13  125.67 255.22 124.05 Q 255.22  124.05 255.86 122.48 Q 255.86  122.48 256.98 121.19 Q 256.98  121.19 258.31 120.36 Q 258.31  120.36 259.82 120.38 Q 259.82  120.38 262.0 122.0 " fill="rgb(7,7,7)"/> <path d="M 262.0 123.0 Q 262.0  123.0 259.85 121.37 Q 259.85  121.37 258.45 121.24 Q 258.45  121.24 257.43 121.79 Q 257.43  121.79 257.0 122.87 Q 257.0  122.87 257.65 124.64 Q 257.65  124.64 259.03 126.83 Q 259.03  126.83 259.96 128.75 Q 259.96  128.75 259.79 130.02 Q 259.79  130.02 259.0 130.83 Q 259.0  130.83 258.11 131.42 Q 258.11  131.42 257.22 131.89 Q 257.22  131.89 256.31 132.33 Q 256.31  132.33 255.21 132.7 Q 255.21  132.7 253.66 132.92 Q 253.66  132.92 251.8 132.94 Q 251.8  132.94 250.13 132.77 Q 250.13  132.77 248.93 132.43 Q 248.93  132.43 248.0 132.0 Q 248.0  132.0 247.1 131.53 Q 247.1  131.53 246.11 130.88 Q 246.11  130.88 244.96 129.91 Q 244.96  129.91 243.82 128.74 Q 243.82  128.74 242.94 127.64 Q 242.94  127.64 242.44 126.87 Q 242.44  126.87 242.34 126.69 Q 242.34  126.69 242.56 127.14 Q 242.56  127.14 242.83 127.83 Q 242.83  127.83 243.03 128.46 Q 243.03  128.46 243.47 129.24 Q 243.47  129.24 244.52 130.46 Q 244.52  130.46 246.04 131.88 Q 246.04  131.88 247.6 132.99 Q 247.6  132.99 249.19 133.6 Q 249.19  133.6 251.25 133.88 Q 251.25  133.88 253.83 133.96 Q 253.83  133.96 256.33 133.83 Q 256.33  133.83 258.23 133.48 Q 258.23  133.48 259.78 132.76 Q 259.78  132.76 261.36 131.53 Q 261.36  131.53 262.88 130.04 Q 262.88  130.04 263.99 128.7 Q 263.99  128.7 264.6 127.41 Q 264.6  127.41 264.88 125.52 Q 264.88  125.52 264.81 122.84 Q 264.81  122.84 264.0 120.0 " fill="rgb(253,253,253)"/></svg>